<svg xmlns="http://www.w3.org/2000/svg" viewBox="0 0 363.76 383.21"><defs><style>.cls-1{fill:#fff;}</style></defs><g id="Layer_2" data-name="Layer 2"><g id="Layer_1-2" data-name="Layer 1"><path d="M3.74,383.21c-2.63-1.81-4.58-4-3.37-7.45s4.14-3.83,7.32-3.8c9.56.06,19.13,0,29,0,0-1.85,0-3.31,0-4.78-.22-32.18-.3-64.36-.76-96.54-.12-8,2.36-13.74,9.69-17.31,3.23-1.57,6.19-3.72,9.34-5.49s6.56-1.13,8.17,1.64.7,6-2.45,8c-3.58,2.26-7.37,4.21-10.85,6.62a5.87,5.87,0,0,0-2.47,4c.12,34.3.41,68.6.67,102.9a3.5,3.5,0,0,0,.19.65h59V229.83c-3.09,1.82-5.83,3.43-8.55,5-5.79,3.44-11.54,6.93-17.36,10.31-3.73,2.17-7,1.52-8.76-1.53s-.66-5.87,3-8.06c9.62-5.77,19.23-11.54,28.93-17.18a5.32,5.32,0,0,0,3.09-5.28c-.14-14.22,0-28.44-.12-42.66-.07-5.88,2-10.28,6.87-13.65C121.34,152,128,146.77,135,142c2.58-1.78,3.39-3.75,3.34-6.8-.18-11.47.06-22.95-.12-34.43a15.13,15.13,0,0,1,6.93-13.61c9.47-6.68,18.74-13.66,28.18-20.39a5.94,5.94,0,0,0,2.94-5.49c-.16-10.08-.06-20.16-.06-30.8-4.37,0-8.45.11-12.51,0-4.73-.16-7.76-4.06-5.65-7.66a8.41,8.41,0,0,1,5.54-3.36c4-.52,8.14-.16,12.69-.16,0-5-.13-9.44,0-13.9A5.19,5.19,0,0,1,181.21.06,5.08,5.08,0,0,1,187,3.71a14.8,14.8,0,0,1,.42,4.43c.06,3.58,0,7.15,0,11.1,4.5,0,8.46-.06,12.42,0s6.26,2.11,6.37,5.36-2.41,5.72-6.39,5.82-7.94,0-12.4,0v4c0,8.86.08,17.71-.05,26.57a5.92,5.92,0,0,0,2.76,5.57c9.27,6.54,18.29,13.44,27.6,19.91,5.41,3.76,7.91,8.45,7.74,15.12-.29,11.59,0,23.2-.13,34.79a5.35,5.35,0,0,0,2.52,4.94c6.82,4.83,13.4,10,20.34,14.63,5.76,3.86,8.56,8.8,7.95,15.74-.23,2.6,0,5.24-.1,7.85-.15,3.19-1.87,5.09-5.1,5.38a5.25,5.25,0,0,1-5.92-4.94c-.3-3.22.1-6.51-.25-9.71a6.65,6.65,0,0,0-2.18-4.26c-19.27-14.2-38.66-28.24-58-42.39-2.05-1.5-3.54-1.49-5.61,0-19.2,14.07-38.5,28-57.68,42.14a6.5,6.5,0,0,0-2.48,4.47q-.18,99.72-.1,199.45c0,.61.11,1.21.19,2h32.25v-3.94q0-23.76,0-47.52c0-16.28,6.08-29.82,18.38-40.53,2.26-2,4.48-4,6.84-5.81a7.69,7.69,0,0,1,9.69-.15c17.26,12.13,27.05,28.09,26.42,49.85-.42,14.58-.08,29.19-.08,43.78v4.3h32.43v-4.65q0-80.82,0-161.66a20,20,0,0,1,.24-4.46c.7-3.09,2.8-4.73,6-4.43a5,5,0,0,1,4.92,5.16,99.89,99.89,0,0,1,0,10.09,5,5,0,0,0,2.75,5.11c19.9,12.13,39.64,24.52,59.63,36.5,6.49,3.9,9.36,8.91,9.26,16.49-.41,32.43-.52,64.86-.73,97.29,0,1.47,0,2.93,0,4.81h25.28c1.25,0,2.5,0,3.74,0,3.2-.17,6.07.33,7.34,3.77s-.85,5.59-3.33,7.47Zm311.87-11.4c.07-1.07.15-1.8.15-2.53q.35-50.29.72-100.61a5.25,5.25,0,0,0-2.93-5.07q-26.79-16.38-53.49-32.87c-1.09-.67-2.25-1.22-3.66-2V371.81ZM181.46,284.64c-12.49,8.95-19.16,20.86-19,36.47s0,31.15,0,46.73v3.89h38.79v-4.29c0-14.95-.2-29.91,0-44.86C201.58,306.25,194.82,293.79,181.46,284.64Zm32.73-153.37c0-11.12.07-21.42-.09-31.71A5,5,0,0,0,212,96.38c-9.3-6.9-18.71-13.65-28-20.53a3,3,0,0,0-4.24,0c-9.21,6.8-18.56,13.43-27.69,20.34a7.14,7.14,0,0,0-2.43,4.85c-.23,9-.12,17.93-.09,26.9a28.16,28.16,0,0,0,.37,3.07c7.75-5.63,15.08-11,22.43-16.29,7.08-5.12,12.05-5.12,19.05,0C198.75,120,206.08,125.36,214.19,131.27Z"/><path d="M181.65,177.22c17.46.1,30.64,13.19,30.66,30.47s-13.44,30.66-31,30.53a30.57,30.57,0,0,1-30-30.85C151.46,190.76,165.19,177.13,181.65,177.22Zm.65,11.24c-11.18-.07-19.61,8.08-19.72,19.1S170.86,226.92,182,227a19.27,19.27,0,0,0,.32-38.53Z"/><path class="cls-1" d="M182.3,188.46A19.27,19.27,0,0,1,182,227c-11.12-.07-19.52-8.49-19.4-19.43S171.12,188.39,182.3,188.46Z"/></g></g></svg>