<?xml version="1.0" encoding="utf-8"?>
<!-- Generator: Adobe Illustrator 24.1.0, SVG Export Plug-In . SVG Version: 6.00 Build 0)  -->
<svg version="1.1" id="Layer_1" xmlns="http://www.w3.org/2000/svg" xmlns:xlink="http://www.w3.org/1999/xlink" x="0px" y="0px"
	 viewBox="0 0 338.6 120.6" style="enable-background:new 0 0 338.6 120.6;" xml:space="preserve">
<style type="text/css">
	.st0{enable-background:new    ;}
	.st1{fill:#A95B26;}
	.st2{fill:none;stroke:#E7862B;stroke-width:0.45;stroke-miterlimit:10;}
	.st3{fill:#E7862B;}
</style>
<g id="Layer_2_1_">
	<g id="Layer_1-2">
		<g class="st0">
			<path class="st1" d="M2.3,96v-0.3c3.8,0,5.4-2.4,5.4-8.4V48.2c0-6-1.6-8.4-5.4-8.4v-0.3h19.9c18.5,0,30.2,11,30.2,28.1
				C52.3,85.8,39.2,96,22.1,96H2.3z M14.6,40.7v54.2h6.2c15.2,0,24.6-8.4,24.6-27.2c0-18-8.5-27-24.6-27H14.6z"/>
		</g>
		<g class="st0">
			<path class="st1" d="M60.2,95.7c3.8,0,5.3-2.4,5.3-8.4V48.2c0-6-1.5-8.4-5.3-8.4v-0.3H97l6,16.5h-0.9
				c-4.4-11.3-8.9-15.4-17.1-15.4H72.4v26.5h7.9c6,0,8.4-2.1,8.4-7.7h0.9V76h-0.9c0-5.5-2.4-7.7-8.4-7.7h-7.9v26.5H87
				c7.6,0,13.1-5.6,18-18h0.9L98.9,96H60.2V95.7z"/>
		</g>
		<g class="st0">
			<path class="st1" d="M129.3,95.7c3.8,0,5.3-2.4,5.3-8.4V40.7h-7.2c-8.5,0-12.2,4-14.2,15.4h-0.9l3.2-16.5h45.3l3,16.5h-0.9
				c-2.3-11.5-5.8-15.4-14.1-15.4h-7.2v46.6c0,6,1.5,8.4,5.3,8.4V96h-17.5V95.7z"/>
		</g>
		<g class="st0">
			<path class="st1" d="M159.5,96v-0.3c2.1,0,4-1.8,5-4.7l18.1-51.4h2.4l17.8,50.7c1.2,3.5,3,5.4,5.2,5.4V96h-18.1v-0.3
				c5.5,0,6.9-1.9,4.9-7.6l-3.8-11h-20.4l-3.8,11c-2,5.6-0.7,7.6,4.9,7.6V96H159.5z M170.8,76h19.8l-9.8-28L170.8,76z"/>
		</g>
		<g class="st0">
			<path class="st1" d="M215.3,95.7c3.8,0,5.3-2.4,5.3-8.4V48.2c0-6-1.5-8.4-5.3-8.4v-0.3h17.6v0.3c-3.8,0-5.4,2.4-5.4,8.4v39.1
				c0,6,1.6,8.4,5.4,8.4V96h-17.6V95.7z"/>
		</g>
		<g class="st0">
			<path class="st1" d="M243.1,95.7c3.8,0,5.3-2.4,5.3-8.4V48.2c0-6-1.5-8.4-5.3-8.4v-0.3h17.5v0.3c-3.8,0-5.3,2.4-5.3,8.4v46.6
				h10.2c7.6,0,10.7-3.2,15.5-15.4h0.9L275.9,96h-32.9V95.7z"/>
		</g>
		<g class="st0">
			<path class="st1" d="M313.7,65.1c11.3,3.5,17.6,8.7,17.6,16.7c0,9.7-9.4,15.4-20.1,15.4c-8.1,0-15.5-3.3-19-8.2
				c-0.7-0.9-1-1.1-1.2-1.1c-0.8,0-0.8,2.1-0.8,2.8h-0.9V77h0.9c0,11.1,9.3,19,21.3,19c7.7,0,13.7-3.2,13.7-9.8
				c0-6.9-6.2-11.6-17.1-15c-13.1-4-18.5-9.7-18.5-17.3c0-9.1,7.8-15.5,18.7-15.5c6.9,0,12,2.5,16.4,6.8c0.9,0.9,1.4,1.2,1.7,1.2
				c0.6,0,0.8-1,0.8-2.8h1.1v11.5h-1.1c0-9.6-9.3-15.6-18.7-15.6c-7.6,0-12.8,3.8-12.8,9.8C295.7,58.9,308.5,63.5,313.7,65.1z"/>
		</g>
		<path class="st2" d="M95.2,29.2c-0.3-0.1,38.5,2.8,42.7-1.6"/>
		<path class="st3" d="M47.5,36.7c-0.9,0.1-1.7-0.4-2.1-1.1c-0.4-0.9-0.6-1.9-0.6-2.9c0-0.9,0.1-1.8,0.2-2.6c0.2-1.5,0.5-3,0.9-4.4
			c0.5-1.7,0.9-3.1,1.2-4.4c0.3-1,0.5-1.7,0.7-2.4c-0.2,0-0.6,0-1,0c-2.3,0-4.6,0.5-6.7,1.2c-0.1,0-0.3,0-0.4-0.1
			c-0.1-0.1-0.2-0.2-0.2-0.4c-0.1-0.2,0.1-0.5,0.3-0.6c0,0,0,0,0,0c2-0.6,4-0.8,6-0.8c0.7,0,1.4,0,2.1,0.1c0.7-2.1,1.3-3.9,1.9-5.3
			c0.1-0.3,0.4-0.4,0.8-0.4c0.3,0,0.6,0.2,0.6,0.5c0,0,0,0.1,0,0.1c-0.6,1.5-1.3,3.3-2,5.2c0.9,0.1,1.8,0.3,2.6,0.5s1.4,0.3,2,0.4
			c0.7,0.1,1.4,0.2,2.2,0.2c0.8,0,1.6-0.1,2.5-0.2c0.2,0,0.3,0.1,0.3,0.3v0.1c0,0-0.1,0.1-0.1,0.1c-0.1,0-0.1,0-0.2,0
			c-0.8,0.1-1.7,0.2-2.6,0.2c-0.7,0-1.5-0.1-2.2-0.2c-0.7-0.1-1.4-0.2-2.2-0.4S50,19.1,49.1,19c-0.9,2.5-1.6,5-2.2,7.6
			c-0.5,2.2-0.8,4.5-0.9,6.7c0,1.9,0.5,2.8,1.4,2.8c1.2,0,2.4-0.3,3.5-0.9c1.3-0.7,2.5-1.5,3.7-2.4c1.2-1,2.4-2.1,3.4-3.2
			c0.4-0.4,0.7-0.8,1.1-1.2l0.2-0.1c0.2,0,0.4,0.1,0.4,0.3v0.1c0,0,0,0.1,0,0.1l0,0c-0.2,0.2-0.7,0.7-1.5,1.5
			c-0.9,0.9-1.9,1.8-3,2.7c-1.2,1-2.4,1.8-3.8,2.6C50.2,36.3,48.8,36.7,47.5,36.7z"/>
		<path class="st3" d="M59.2,34.6c-0.3,0-0.6-0.1-0.8-0.3c-0.2-0.2-0.3-0.4-0.3-0.7c0.1-2.5,0.5-5,1.3-7.3c0.9-2.8,2-5.5,3.4-8.2
			c1.3-2.5,2.7-5,4.4-7.3c2.4-3.3,4.6-5.1,6.5-5.2c1,0,1.5,0.6,1.5,1.7c-0.2,1.7-0.8,3.2-1.8,4.6c-1.4,2.2-2.9,4.4-4.6,6.4
			C67,20.6,65,23,62.8,25.5c-1.7,1.9-2.6,3-2.7,3c-0.6,1.7-0.9,3.4-0.9,5.2c0,0.2,0.1,0.3,0.2,0.3s0.4-0.2,0.7-0.5
			c0.4-0.3,0.7-0.7,1-1.1c0.3-0.4,0.5-0.7,0.7-0.9C63,29.9,64.1,29,65,29c0.5-0.1,1.1,0.1,1.4,0.6c0.3,0.4,0.4,0.9,0.4,1.4
			c0,0.4,0,0.7,0,1v0.6c0,0.3,0,0.5,0.1,0.8c0,0.2,0.3,0.3,0.7,0.3c1.3,0,3.5-0.7,6.4-2.1l5.8-3.1c0.2,0,0.4,0.1,0.4,0.2v0.1
			c0,0.1,0,0.1-0.1,0.1c0,0,0,0,0,0c-0.3,0.2-1.5,0.8-3.3,1.9c-4.1,2.3-7.2,3.4-9.1,3.4c-0.5,0-0.9-0.1-1.3-0.4
			c-0.3-0.2-0.5-0.5-0.6-0.8c-0.1-0.4-0.1-0.7-0.1-1.1c0-0.2,0-0.4,0-0.7c0-0.2,0-0.4,0-0.6c0-0.2,0-0.4-0.1-0.6
			c0-0.2-0.2-0.2-0.5-0.2c-0.6,0-1.1,0.3-1.5,0.8c-0.7,0.7-1.3,1.4-1.9,2.2l-1,1.3C60.3,34.2,59.8,34.5,59.2,34.6z M60.4,27.3
			c2.8-3,5.6-6.2,8.4-9.9c3.9-5,5.9-8.4,5.9-10.2c0-0.8-0.3-1.1-0.9-1.1c-0.8,0-1.8,0.7-3,2c-1.4,1.7-2.7,3.4-3.8,5.3
			c-1.4,2.3-2.7,4.6-3.8,7C62.1,22.7,61.2,25,60.4,27.3z"/>
		<path class="st3" d="M81.6,33c-1.9,0-2.8-0.8-2.9-2.4c0-0.8,0.2-1.6,0.7-2.3c0.5-0.7,1.3-1.1,2.1-1.1c0.2,0,0.5,0.1,0.7,0.2
			c0.2,0.1,0.3,0.4,0.3,0.6c0,0.6-0.3,1.1-0.9,1.2c-0.5,0.2-1.1,0.4-1.7,0.4c-0.1,0.3-0.1,0.6-0.1,0.9c0,0.5,0.1,1,0.5,1.4
			c0.3,0.3,0.8,0.5,1.3,0.5c1.4,0,2.8-0.2,4.2-0.6c1.5-0.4,3-0.9,4.5-1.5c1.5-0.6,3.3-1.5,4.9-1.4c0.2,0,0.2,0,0.2,0.1
			s0.1,0.1,0.1,0.2c0,0,0,0.1,0,0.1c0,0,0,0.1-0.1,0.1c-0.7,0-1.5,0-2.2,0.2c-0.9,0.3-1.5,0.8-2.9,1.3c-1.4,0.6-2.9,1-4.4,1.4
			C84.5,32.8,83.1,33,81.6,33z M80,29.1c0.4,0,0.9-0.1,1.3-0.3c0.4-0.1,0.6-0.4,0.6-0.8c0-0.2-0.2-0.3-0.5-0.3
			C80.8,27.8,80.4,28.2,80,29.1z"/>
	</g>
</g>
</svg>
