<svg xmlns="http://www.w3.org/2000/svg" viewBox="0 0 338.64 120.63"><defs><style>.cls-1{font-size:112.95px;fill:#a95b26;font-family:Rusillaserif-Regular, Rusilla serif;letter-spacing:0.03em;}.cls-2{letter-spacing:0.02em;}.cls-3{letter-spacing:-0.06em;}.cls-4{letter-spacing:0.04em;}.cls-5{letter-spacing:0.05em;}.cls-6{letter-spacing:0.05em;}.cls-7{fill:none;stroke:#e7862b;stroke-miterlimit:10;stroke-width:0.45px;}.cls-8{fill:#e7862b;}</style></defs><g id="Layer_2" data-name="Layer 2"><g id="Layer_1-2" data-name="Layer 1"><text class="cls-1" transform="translate(0 96.01)">d<tspan class="cls-2" x="57.95" y="0">e</tspan><tspan class="cls-3" x="109.79" y="0">t</tspan><tspan class="cls-4" x="158.93" y="0">a</tspan><tspan class="cls-5" x="213.03" y="0">i</tspan><tspan class="cls-4" x="240.82" y="0">l</tspan><tspan class="cls-6" x="287.36" y="0">s</tspan></text><path class="cls-7" d="M95.21,29.17c-.33-.13,38.51,2.76,42.68-1.57"/><path class="cls-8" d="M47.47,36.69a2.1,2.1,0,0,1-2.08-1.13,6.45,6.45,0,0,1-.56-2.91A23.07,23.07,0,0,1,45.06,30a40,40,0,0,1,.91-4.4c.45-1.67.86-3.14,1.24-4.4.29-1,.52-1.73.7-2.35q-.36,0-1,0a20.55,20.55,0,0,0-6.7,1.24.75.75,0,0,1-.39-.09c-.1-.06-.15-.2-.15-.43A.46.46,0,0,1,40,19a21.48,21.48,0,0,1,6-.82,20.8,20.8,0,0,1,2.1.1C48.81,16.16,49.44,14.4,50,13a.77.77,0,0,1,.75-.41.53.53,0,0,1,.59.6c-.64,1.51-1.3,3.26-2,5.22.9.12,1.77.28,2.61.47s1.37.26,2.05.37a12.25,12.25,0,0,0,2.15.17,16.93,16.93,0,0,0,2.45-.18c.21,0,.31.09.31.28v.08a.63.63,0,0,1-.1.12.31.31,0,0,1-.16,0,18,18,0,0,1-2.56.18,14.12,14.12,0,0,1-2.17-.17c-.71-.11-1.42-.24-2.15-.37S50,19.09,49.12,19a69.2,69.2,0,0,0-2.18,7.63,30.86,30.86,0,0,0-.9,6.72c0,1.9.47,2.85,1.4,2.85a7.63,7.63,0,0,0,3.48-.93,20.3,20.3,0,0,0,3.65-2.43A37.1,37.1,0,0,0,58,29.62a12,12,0,0,0,1.08-1.19l.16-.1c.24,0,.36.09.36.26v.09a.28.28,0,0,1-.05.12l0,0c-.17.21-.66.72-1.45,1.53A36.3,36.3,0,0,1,55.11,33a24.47,24.47,0,0,1-3.76,2.57A8.07,8.07,0,0,1,47.47,36.69Z"/><path class="cls-8" d="M59.24,34.59a1.12,1.12,0,0,1-.8-.28.86.86,0,0,1-.31-.65,24.69,24.69,0,0,1,1.3-7.35,55,55,0,0,1,3.37-8.17,53.58,53.58,0,0,1,4.38-7.27q3.6-5,6.52-5.25c1,0,1.48.55,1.48,1.65a9.91,9.91,0,0,1-1.76,4.59,62.49,62.49,0,0,1-4.57,6.43q-2.8,3.53-6.07,7.17c-1.69,1.93-2.6,2.95-2.74,3.05a18,18,0,0,0-.93,5.2c0,.23.08.34.18.34s.37-.16.7-.49a12.71,12.71,0,0,0,1-1.08c.31-.38.53-.67.67-.86Q63.66,29,65,29a1.61,1.61,0,0,1,1.45.57,2.63,2.63,0,0,1,.36,1.42q0,.55,0,1l0,.57a4.11,4.11,0,0,0,.07.78c0,.19.26.28.68.28,1.33,0,3.46-.69,6.41-2.07l5.77-3.13c.24,0,.37.08.37.23v.13a.1.1,0,0,1-.11.11c-.34.22-1.46.84-3.34,1.86q-6.21,3.39-9.1,3.39a2.46,2.46,0,0,1-1.35-.39,1.54,1.54,0,0,1-.58-.84,3.85,3.85,0,0,1-.14-1.1,3.78,3.78,0,0,1,0-.67,5,5,0,0,0,0-.65,2.73,2.73,0,0,0-.08-.65c0-.17-.17-.25-.46-.25a2.12,2.12,0,0,0-1.45.75,24.21,24.21,0,0,0-1.86,2.17l-1,1.29A2.12,2.12,0,0,1,59.24,34.59Zm1.16-7.27q4.2-4.44,8.39-9.85Q74.66,9.91,74.66,7.3q0-1.14-.93-1.14c-.8,0-1.79.68-3,2a38.82,38.82,0,0,0-3.8,5.32,70.73,70.73,0,0,0-3.78,7.05A63.73,63.73,0,0,0,60.4,27.32Z"/><path class="cls-8" d="M81.59,33c-1.86,0-2.83-.79-2.92-2.36a3.72,3.72,0,0,1,.72-2.27,2.65,2.65,0,0,1,2.1-1.06,1.3,1.3,0,0,1,.7.2.67.67,0,0,1,.31.6,1.25,1.25,0,0,1-.88,1.24,4.55,4.55,0,0,1-1.73.36,3.65,3.65,0,0,0-.08.86,1.94,1.94,0,0,0,.48,1.37,1.69,1.69,0,0,0,1.3.51,16.65,16.65,0,0,0,4.17-.56,35,35,0,0,0,4.47-1.5c1.52-.63,3.26-1.5,4.92-1.41.21,0,.17,0,.24.06s.12.07.12.19a.27.27,0,0,1,0,.13c0,.05,0,.08-.09.08a7,7,0,0,0-2.22.22c-.93.31-1.51.79-2.87,1.32a39.79,39.79,0,0,1-4.36,1.41A17,17,0,0,1,81.59,33ZM80,29.15a3.79,3.79,0,0,0,1.29-.29.85.85,0,0,0,.63-.8c0-.17-.16-.26-.47-.26C80.85,27.8,80.37,28.25,80,29.15Z"/></g></g></svg>