<svg xmlns="http://www.w3.org/2000/svg" viewBox="0 0 236.41 120.63"><defs><style>.cls-1{font-size:112.95px;fill:#a95b26;font-family:Rusillaserif-Regular, Rusilla serif;letter-spacing:0.03em;}.cls-2{letter-spacing:0.04em;}.cls-3{letter-spacing:0.05em;}.cls-4{fill:none;stroke:#e7862b;stroke-miterlimit:10;stroke-width:0.5px;}.cls-5{fill:#e7862b;}</style></defs><g id="Layer_2" data-name="Layer 2"><g id="Layer_1-2" data-name="Layer 1"><text class="cls-1" transform="translate(0 96.01)">c<tspan class="cls-2" x="57.16" y="0">od</tspan><tspan class="cls-3" x="181.18" y="0">e</tspan></text><path class="cls-4" d="M145.84,34.33c2.5,1.4,38.51,2.76,42.68-1.57"/><path class="cls-5" d="M52,38.53q-6.06,0-6.94-5.71a35.79,35.79,0,0,1-3.63,3.66,4.34,4.34,0,0,1-2.56,1.26c-1.14,0-1.81-.73-2-2.17a4.84,4.84,0,0,1,.69-2.37,6.72,6.72,0,0,1,1.83-2.11,4,4,0,0,1,2.49-.88,1.48,1.48,0,0,1,1.62,1.51c0,.26-.12.38-.34.38a.4.4,0,0,1-.35-.24.66.66,0,0,0-.72-.45A3.31,3.31,0,0,0,39.5,33a5,5,0,0,0-1.17,3c0,.71.18,1.06.55,1.06q1.26,0,4.67-3.57a16.11,16.11,0,0,0,1.37-1.51,21.14,21.14,0,0,1-.24-3.3,23.08,23.08,0,0,1,1-6.6,39.9,39.9,0,0,1,2.72-6.77A41,41,0,0,1,52,9.49q2.88-3.88,5.36-4.09A2.15,2.15,0,0,1,59,6.09a3,3,0,0,1,.64,2.1q0,2.54-2.68,7.38a95,95,0,0,1-10.72,16q.48,6,5.81,6.32a13.31,13.31,0,0,0,7.52-2.72A36.79,36.79,0,0,0,65.16,31a.32.32,0,0,1,.17-.07c.3,0,.45.11.45.34a.44.44,0,0,1-.14.28A50.39,50.39,0,0,1,60,35.74,14.1,14.1,0,0,1,52,38.53Zm-5.91-8A99.68,99.68,0,0,0,55,17.77q3.88-6.63,3.88-9.58c0-1.38-.51-2.07-1.54-2.07s-2.12.81-3.39,2.43a34.75,34.75,0,0,0-3.71,6.1,50.68,50.68,0,0,0-3,7.57A23.93,23.93,0,0,0,46.06,29Z"/><path class="cls-5" d="M67.5,39.28c-1.72,0-2.6-.58-2.65-1.75A5.2,5.2,0,0,1,65.64,35a3.79,3.79,0,0,0,.55-1.65,1.57,1.57,0,0,0-.48-1,3.21,3.21,0,0,1-.79-2,2.17,2.17,0,0,1,1-1.82,4,4,0,0,1,1.91-.79.81.81,0,0,1,.57.22.69.69,0,0,1,.22.5,1.33,1.33,0,0,1-.34.79,9.31,9.31,0,0,1-2,1.89,4.3,4.3,0,0,0,.69,1,2.38,2.38,0,0,1,.72,1.47,3.66,3.66,0,0,1-.55,1.72,5.94,5.94,0,0,0-.65,2.34c0,.59.34.9,1,.92q6.21,0,17.93-7.59l.14,0c.28,0,.41.15.41.44l-.17.21Q74.13,39.28,67.5,39.28Zm.38-10.79a1.87,1.87,0,0,0-1.21.64A1.81,1.81,0,0,0,66,30.38v.07a7.4,7.4,0,0,0,1.24-1.06C67.67,29,67.88,28.65,67.88,28.49Z"/><path class="cls-5" d="M88.08,37.08q-3.72,0-3.88-3.12a5,5,0,0,1,1-3,3.51,3.51,0,0,1,2.78-1.41,1.69,1.69,0,0,1,.93.28.9.9,0,0,1,.41.79,1.68,1.68,0,0,1-1.17,1.65,6,6,0,0,1-2.3.48,5.39,5.39,0,0,0-.1,1.13,2.57,2.57,0,0,0,.63,1.82,2.27,2.27,0,0,0,1.74.69,22.28,22.28,0,0,0,5.53-.75,46.12,46.12,0,0,0,5.94-2q3-1.23,6-2.64a.72.72,0,0,1,.33.07.29.29,0,0,1,.15.3.35.35,0,0,1,0,.18c0,.07-.07.1-.12.1s-.65.34-1.82.89-2.66,1.18-4.47,1.89a52.4,52.4,0,0,1-5.79,1.88A23,23,0,0,1,88.08,37.08ZM86,32a4.78,4.78,0,0,0,1.71-.38,1.12,1.12,0,0,0,.83-1.06c0-.23-.21-.34-.62-.34C87.09,30.25,86.45,30.84,86,32Z"/><path class="cls-5" d="M123.85,44a.53.53,0,0,1-.21-.48A4.19,4.19,0,0,1,125,40.66a11.47,11.47,0,0,0,.25-2.37,13.35,13.35,0,0,0-.28-2.62,15.56,15.56,0,0,1-.27-3V32.1q-3.37,1.82-8,3.78-9,3.78-11.23,6a11.4,11.4,0,0,1-1,1.92.63.63,0,0,1-.42.17.46.46,0,0,1-.2-.15.28.28,0,0,1-.07-.19,2.49,2.49,0,0,1,.69-1.68,6.71,6.71,0,0,0,.27-1.79,9.33,9.33,0,0,0-.45-2.41,9.4,9.4,0,0,1-.51-3.33,4.55,4.55,0,0,1,.84-2.7,10.34,10.34,0,0,1,1.94-2.07.77.77,0,0,1,.45-.18c.37.07.55.24.55.52a.28.28,0,0,1,0,.15.39.39,0,0,1-.1.16A7.49,7.49,0,0,0,106,32a4,4,0,0,0-.59,2.2,10.55,10.55,0,0,0,.31,2.72,9.59,9.59,0,0,1,.28,2.3,10.82,10.82,0,0,1-.07,1.37Q107.35,39.11,117,35q4.55-1.92,8-3.78a8.35,8.35,0,0,1,2.41-3.26,1.09,1.09,0,0,1,.44-.14.76.76,0,0,1,.38.12.42.42,0,0,1,.21.4.28.28,0,0,1,0,.12,1.13,1.13,0,0,0-.07.15,6.37,6.37,0,0,0-1.59,1.72,4.12,4.12,0,0,0-.57,2.2,16.07,16.07,0,0,0,.17,2.33,18.33,18.33,0,0,1,.17,2.48,15.52,15.52,0,0,1-.14,2.27c1.65-1.22,4.78-2.69,9.38-4.44,3.51-1.32,6.31-1.95,10.24-1a.9.9,0,0,1,.38.17c.07.07.11.1.11.21l-.12.25a16,16,0,0,0-10.09.92q-3,1.14-5.48,2.27a26.15,26.15,0,0,0-4.42,2.48l-.24.2a7.33,7.33,0,0,1-1.82,3.23C124.22,44,124.08,44,123.85,44Zm1.1-2.54a7,7,0,0,0-.73,1.48A6.19,6.19,0,0,0,125,41.48Z"/></g></g></svg>