<?xml version="1.0" encoding="utf-8"?>
<!-- Generator: Adobe Illustrator 24.1.0, SVG Export Plug-In . SVG Version: 6.00 Build 0)  -->
<svg version="1.1" id="Layer_1" xmlns="http://www.w3.org/2000/svg" xmlns:xlink="http://www.w3.org/1999/xlink" x="0px" y="0px"
	 viewBox="0 0 236.4 120.6" style="enable-background:new 0 0 236.4 120.6;" xml:space="preserve">
<style type="text/css">
	.st0{enable-background:new    ;}
	.st1{fill:#A95B26;}
	.st2{fill:none;stroke:#E7862B;stroke-width:0.5;stroke-miterlimit:10;}
	.st3{fill:#E7862B;}
</style>
<g id="Layer_2_1_">
	<g id="Layer_1-2">
		<g class="st0">
			<path class="st1" d="M31.3,38.4c3.6,0,6.8,0.7,10.1,2.4c1.7,0.8,2.4,0.9,2.8,0.9c1.5,0,1.9-1.5,1.9-3.2H47v14.8h-0.9
				c0-7.8-6.9-13.8-15.8-13.8c-12.5,0-21.5,11.9-21.5,28.2C8.8,83.6,19.9,96,32.4,96c8.8,0,16.3-6.1,16.8-14.7h0.6l1.7,4.9
				c-5,7.6-11.7,11-20.4,11c-17.5,0-29.4-13.7-29.4-28.9C1.7,52,15.1,38.4,31.3,38.4z"/>
		</g>
		<g class="st0">
			<path class="st1" d="M88.2,38.4c16.3,0,29.4,13.1,29.4,29.4c0,16.3-13.1,29.4-29.4,29.4S58.9,84,58.9,67.8
				C58.9,51.5,72,38.4,88.2,38.4z M110.6,71.4c0-14.2-9.4-31.9-24.3-31.9c-12,0-20.4,11.2-20.4,24.7c0,14.2,9.4,31.7,24.3,31.7
				C102.1,96,110.6,84.8,110.6,71.4z"/>
			<path class="st1" d="M124.3,96v-0.3c3.8,0,5.4-2.4,5.4-8.4V48.2c0-6-1.6-8.4-5.4-8.4v-0.3h19.9c18.5,0,30.2,11,30.2,28.1
				c0,18.2-13.1,28.3-30.2,28.3H124.3z M136.6,40.7v54.2h6.2c15.2,0,24.6-8.4,24.6-27.2c0-18-8.5-27-24.6-27H136.6z"/>
		</g>
		<g class="st0">
			<path class="st1" d="M183.4,95.7c3.8,0,5.3-2.4,5.3-8.4V48.2c0-6-1.5-8.4-5.3-8.4v-0.3h36.8l6,16.5h-0.9
				c-4.4-11.3-8.9-15.4-17.1-15.4h-12.7v26.5h7.9c6,0,8.4-2.1,8.4-7.7h0.9V76h-0.9c0-5.5-2.4-7.7-8.4-7.7h-7.9v26.5h14.6
				c7.6,0,13.1-5.6,18-18h0.9L222.2,96h-38.7V95.7z"/>
		</g>
		<path class="st2" d="M145.8,34.3c2.5,1.4,38.5,2.8,42.7-1.6"/>
		<path class="st3" d="M52,38.5c-4,0-6.4-1.9-6.9-5.7c-1.1,1.3-2.3,2.5-3.6,3.7c-0.7,0.7-1.6,1.1-2.6,1.3c-1.1,0-1.8-0.7-2-2.2
			c0-0.8,0.3-1.7,0.7-2.4c0.5-0.8,1.1-1.5,1.8-2.1c0.7-0.6,1.6-0.9,2.5-0.9c0.8-0.1,1.5,0.5,1.6,1.3c0,0.1,0,0.1,0,0.2
			c0,0.3-0.1,0.4-0.3,0.4c-0.2,0-0.3-0.1-0.3-0.2c-0.1-0.3-0.4-0.5-0.7-0.5c-1.1,0.1-2,0.7-2.6,1.6c-0.7,0.8-1.1,1.9-1.2,3
			c0,0.7,0.2,1.1,0.5,1.1c0.8,0,2.4-1.2,4.7-3.6c0.5-0.5,0.9-1,1.4-1.5c-0.2-1.1-0.2-2.2-0.2-3.3c0-2.2,0.3-4.5,1-6.6
			c0.7-2.3,1.6-4.6,2.7-6.8c1-2,2.2-4,3.6-5.8c1.9-2.6,3.7-4,5.4-4.1c0.6,0,1.2,0.2,1.6,0.7c0.5,0.6,0.7,1.3,0.6,2.1
			c0,1.7-0.9,4.2-2.7,7.4c-3,5.7-6.6,11-10.7,16c0.3,4,2.3,6.1,5.8,6.3c2.7-0.1,5.4-1.1,7.5-2.7c2-1.2,3.9-2.6,5.6-4.2
			c0,0,0.1-0.1,0.2-0.1c0.3,0,0.4,0.1,0.4,0.3c0,0.1-0.1,0.2-0.1,0.3c-1.8,1.5-3.7,2.9-5.6,4.2C57.7,37.5,54.9,38.4,52,38.5z
			 M46.1,30.5c3.3-4,6.3-8.3,8.9-12.8c2.6-4.4,3.9-7.6,3.9-9.6c0-1.4-0.5-2.1-1.5-2.1S55.2,6.9,54,8.5c-1.4,1.9-2.7,3.9-3.7,6.1
			c-1.2,2.4-2.2,5-3,7.6c-0.7,2.2-1.1,4.5-1.2,6.8L46.1,30.5z"/>
		<path class="st3" d="M67.5,39.3c-1.7,0-2.6-0.6-2.7-1.8c0-0.9,0.3-1.8,0.8-2.5c0.3-0.5,0.5-1.1,0.6-1.7c0-0.4-0.2-0.7-0.5-1
			c-0.5-0.6-0.8-1.3-0.8-2c0-0.7,0.4-1.4,1-1.8c0.6-0.4,1.2-0.7,1.9-0.8c0.2,0,0.4,0.1,0.6,0.2c0.1,0.1,0.2,0.3,0.2,0.5
			c0,0.3-0.1,0.6-0.3,0.8c-0.6,0.7-1.2,1.4-2,1.9c0.2,0.4,0.4,0.7,0.7,1c0.4,0.4,0.7,0.9,0.7,1.5c0,0.6-0.2,1.2-0.6,1.7
			c-0.4,0.7-0.6,1.5-0.7,2.3c0,0.6,0.3,0.9,1,0.9c4.1,0,10.1-2.5,17.9-7.6h0.1c0.3,0,0.4,0.1,0.4,0.4l-0.2,0.2
			C78,36.7,71.9,39.3,67.5,39.3z M67.9,28.5c-0.5,0.1-0.9,0.3-1.2,0.6c-0.4,0.3-0.6,0.8-0.7,1.3v0.1c0.5-0.3,0.9-0.7,1.2-1.1
			C67.7,29,67.9,28.6,67.9,28.5z"/>
		<path class="st3" d="M88.1,37.1c-2.5,0-3.8-1-3.9-3.1c0-1.1,0.4-2.1,1-3c0.7-0.9,1.7-1.4,2.8-1.4c0.3,0,0.7,0.1,0.9,0.3
			c0.3,0.2,0.4,0.5,0.4,0.8c0,0.7-0.5,1.4-1.2,1.6c-0.7,0.3-1.5,0.5-2.3,0.5c-0.1,0.4-0.1,0.8-0.1,1.1c0,0.7,0.2,1.3,0.6,1.8
			c0.5,0.5,1.1,0.7,1.7,0.7c1.9,0,3.7-0.3,5.5-0.8c2-0.5,4-1.2,5.9-2c2-0.8,4-1.7,6-2.6c0.1,0,0.2,0,0.3,0.1
			c0.1,0.1,0.2,0.2,0.2,0.3c0,0.1,0,0.1,0,0.2c0,0.1-0.1,0.1-0.1,0.1s-0.7,0.3-1.8,0.9s-2.7,1.2-4.5,1.9c-1.9,0.7-3.8,1.4-5.8,1.9
			C92,36.8,90,37.1,88.1,37.1z M86,32c0.6,0,1.2-0.1,1.7-0.4c0.5-0.1,0.8-0.6,0.8-1.1c0-0.2-0.2-0.3-0.6-0.3
			C87.1,30.2,86.4,30.8,86,32z"/>
		<path class="st3" d="M123.8,44c-0.1-0.1-0.2-0.3-0.2-0.5c0.1-1.1,0.5-2.1,1.4-2.9c0.2-0.8,0.2-1.6,0.2-2.4c0-0.9-0.1-1.8-0.3-2.6
			c-0.2-1-0.3-2-0.3-3v-0.6c-2.2,1.2-4.9,2.5-8,3.8c-6,2.5-9.7,4.5-11.2,6c-0.3,0.7-0.6,1.3-1,1.9c-0.1,0.1-0.3,0.2-0.4,0.2
			c-0.1,0-0.1-0.1-0.2-0.2c0-0.1-0.1-0.1-0.1-0.2c0-0.6,0.3-1.2,0.7-1.7c0.2-0.6,0.3-1.2,0.3-1.8c0-0.8-0.2-1.6-0.4-2.4
			c-0.4-1.1-0.5-2.2-0.5-3.3c0-1,0.3-1.9,0.8-2.7c0.5-0.8,1.2-1.5,1.9-2.1c0.1-0.1,0.3-0.2,0.4-0.2c0.4,0.1,0.6,0.2,0.6,0.5
			c0,0,0,0.1,0,0.1c0,0.1-0.1,0.1-0.1,0.2c-0.6,0.5-1.1,1.1-1.5,1.7c-0.4,0.7-0.6,1.4-0.6,2.2c0,0.9,0.1,1.8,0.3,2.7
			c0.2,0.8,0.3,1.5,0.3,2.3c0,0.5,0,0.9-0.1,1.4c0.9-1,4.6-2.8,11.1-5.6c3-1.3,5.7-2.5,8-3.8c0.5-1.3,1.4-2.4,2.4-3.3
			c0.1-0.1,0.3-0.1,0.4-0.1c0.1,0,0.3,0,0.4,0.1c0.1,0.1,0.2,0.2,0.2,0.4c0,0,0,0.1,0,0.1c0,0-0.1,0.1-0.1,0.1
			c-0.6,0.5-1.2,1.1-1.6,1.7c-0.4,0.7-0.6,1.4-0.6,2.2c0,0.8,0.1,1.6,0.2,2.3c0.1,0.8,0.2,1.7,0.2,2.5c0,0.8,0,1.5-0.1,2.3
			c1.7-1.2,4.8-2.7,9.4-4.4c3.5-1.3,6.3-2,10.2-1c0.1,0,0.3,0.1,0.4,0.2c0.1,0.1,0.1,0.1,0.1,0.2l-0.1,0.2
			c-3.4-0.8-6.9-0.5-10.1,0.9c-2,0.8-3.8,1.5-5.5,2.3c-1.6,0.7-3,1.5-4.4,2.5l-0.2,0.2c-0.3,1.2-0.9,2.3-1.8,3.2
			C124.2,44,124.1,44,123.8,44z M124.9,41.5c-0.3,0.5-0.5,1-0.7,1.5C124.5,42.5,124.8,42,124.9,41.5L124.9,41.5z"/>
	</g>
</g>
</svg>
