<?xml version="1.0" encoding="utf-8"?>
<!-- Generator: Adobe Illustrator 24.1.0, SVG Export Plug-In . SVG Version: 6.00 Build 0)  -->
<svg version="1.1" id="Layer_1" xmlns="http://www.w3.org/2000/svg" xmlns:xlink="http://www.w3.org/1999/xlink" x="0px" y="0px"
	 viewBox="0 0 800 800" style="enable-background:new 0 0 800 800;" xml:space="preserve">
	<style type="text/css">
		.st0{fill:#F2F200;}
		.st1{fill:#000000;}
	</style>
	<g id="Layer_2">
		<polygon class="bg-white" points="403.9,629.2 573.5,680.1 543.7,570.3 778.7,466.7 729.4,416.4 786.9,309.7 666.8,309.7 648.4,231.7 
			512.9,325.1 530.4,91.2 466.8,117.8 393.9,16.3 331.3,117.8 267.7,96.3 284.1,320 155.9,233.8 131.2,306.6 14.3,304.6 70.7,411.3 
			14.3,464.6 251.3,565.2 230.8,671.9 	"/>
	</g>
	<g>
		<g>
			<path class="st1" d="M795.3,456.3l-50.8-42.8l53.9-100.7c2.2-4.1,2.1-9.1-0.3-13.1c-2.4-4-6.7-6.5-11.4-6.5H677.5l-13.7-65.7
				c-0.9-4.4-4-8.1-8.2-9.7c-4.2-1.6-8.9-1-12.6,1.6l-114.7,82.5l18.4-207.5c0.4-4.6-1.6-9.1-5.3-11.9c-3.7-2.8-8.6-3.4-12.9-1.7
				l-56.3,22.5L411.3,6.1c-4.9-7.8-17.7-7.8-22.6,0l-60.8,97.2l-56.3-22.5c-4.3-1.7-9.2-1.1-12.9,1.7c-3.7,2.8-5.7,7.3-5.3,11.9
				l18.4,207.5l-114.7-82.5c-3.7-2.6-8.4-3.2-12.6-1.6c-4.2,1.6-7.3,5.3-8.2,9.7l-13.7,65.7H13.3c-4.7,0-9,2.5-11.4,6.5
				c-2.4,4-2.5,9-0.3,13.1l53.9,100.7L4.7,456.3c-3.5,3-5.3,7.5-4.6,12.1c0.7,4.5,3.6,8.4,7.8,10.3l229.8,102.1l-23.9,95.8
				c-1.2,4.7,0.3,9.6,3.8,12.9c3.5,3.3,8.5,4.5,13.1,3.1l156.1-48v142c0,7.4,6,13.3,13.3,13.3c7.4,0,13.3-6,13.3-13.3V527.5
				l178.1-102.8c6.4-3.7,8.6-11.8,4.9-18.2c-3.7-6.4-11.9-8.6-18.2-4.9l-164.7,95.1V199.8c0-7.4-6-13.3-13.3-13.3
				c-7.4,0-13.3,6-13.3,13.3v296.9l-164.8-95.1c-6.4-3.7-14.5-1.5-18.2,4.9c-3.7,6.4-1.5,14.5,4.9,18.2l178.1,102.8v89.1l-141.3,43.5
				l20.9-83.7c1.6-6.3-1.6-12.8-7.5-15.4l-220.5-98l42.7-36c4.8-4.1,6.1-10.9,3.2-16.5l-48.5-90.6h97.7c6.3,0,11.8-4.4,13.1-10.6
				l11.8-56.3l121.7,87.5c4.2,3.1,9.9,3.3,14.4,0.7c4.5-2.6,7.1-7.6,6.7-12.8l-19.1-214.9l46.5,18.6c6,2.4,12.8,0.1,16.3-5.3
				L400,38.3l55.4,88.6c3.4,5.5,10.3,7.7,16.3,5.3l46.5-18.6l-19.1,214.9c-0.5,5.2,2.1,10.2,6.7,12.8c4.5,2.6,10.2,2.3,14.4-0.7
				L641.9,253l11.8,56.2c1.3,6.2,6.7,10.6,13.1,10.6h97.7l-48.5,90.6c-3,5.6-1.7,12.4,3.2,16.5l42.7,36l-220.5,98
				c-5.9,2.6-9.1,9.1-7.5,15.4l20.9,83.7l-97.5-30c-7-2.2-48.9-13.3-51-6.3c-2.2,7-9.8,15.6-2.8,17.8l166,50.9
				c1.3,0.4,2.6,0.6,3.9,0.6c3.4,0,6.7-1.3,9.2-3.7c3.5-3.3,4.9-8.3,3.8-12.9l-23.9-95.8l229.8-102.1c4.2-1.9,7.1-5.8,7.8-10.3
				C800.5,463.8,798.8,459.2,795.3,456.3z"/>
		</g>
	</g>
</svg>
