<svg xmlns="http://www.w3.org/2000/svg" viewBox="0 0 193.44 71.06"><defs><style>.cls-1{fill:#a95b26;}.cls-2{fill:#e7862b;}</style></defs><g id="Layer_2" data-name="Layer 2"><g id="Layer_1-2" data-name="Layer 1"><path class="cls-1" d="M3.8,2.13V28.85c0,3.53.93,4.93,3.2,4.93V34H0v-.2c2.27,0,3.13-1.4,3.13-4.93V5.8C3.13,2.27,2.27.87,0,.87V.67H7.6L19,26.05,30.39.67h7.26v.2c-2.27,0-3.2,1.4-3.2,4.93V28.85c0,3.53.93,4.93,3.2,4.93V34H27.25v-.2c2.27,0,3.14-1.4,3.14-4.93V2.27L17.26,31.45H17Z"/><path class="cls-1" d="M40.31,33.78c2.27,0,3.13-1.4,3.13-4.93V5.8c0-3.53-.86-4.93-3.13-4.93V.67h10.4v.2c-2.27,0-3.2,1.4-3.2,4.93V28.85c0,3.53.93,4.93,3.2,4.93V34H40.31Z"/><path class="cls-1" d="M69.5,0a12.33,12.33,0,0,1,5.93,1.4,4,4,0,0,0,1.66.53c.87,0,1.14-.86,1.14-1.86h.53V8.8h-.53c0-4.6-4.07-8.13-9.33-8.13-7.4,0-12.66,7-12.66,16.66C56.24,26.65,62.77,34,70.17,34c5.19,0,9.59-3.59,9.92-8.66h.34l1,2.87a13.49,13.49,0,0,1-12.06,6.46A17,17,0,0,1,52,17.59,17.68,17.68,0,0,1,69.5,0Z"/><path class="cls-1" d="M82.76,33.78c2.26,0,3.2-1.4,3.2-4.93V5.8C86,2.27,85,.87,82.76.87V.67H93.15v.2C90.89.87,90,2.27,90,5.8V17.06h15.46V5.8c0-3.53-.86-4.93-3.13-4.93V.67h10.39v.2c-2.26,0-3.19,1.4-3.19,4.93V28.85c0,3.53.93,4.93,3.19,4.93V34H102.35v-.2c2.27,0,3.13-1.4,3.13-4.93V17.73H90V28.85c0,3.53.87,4.93,3.13,4.93V34H82.76Z"/><path class="cls-1" d="M113.08,34v-.2c1.26,0,2.33-1.06,2.93-2.79L126.67.67h1.4L138.6,30.59c.73,2.06,1.8,3.19,3.06,3.19V34H131v-.2c3.27,0,4.07-1.13,2.87-4.46l-2.27-6.46H119.54l-2.26,6.46c-1.2,3.33-.4,4.46,2.86,4.46V34Zm6.66-11.79H131.4L125.6,5.66Z"/><path class="cls-1" d="M142.66,33.78c2.27,0,3.13-1.4,3.13-4.93V5.8c0-3.53-.86-4.93-3.13-4.93V.67h21.73l3.53,9.73h-.54c-2.59-6.67-5.26-9.07-10.06-9.07h-7.46V17h4.66c3.54,0,4.93-1.26,4.93-4.53H160v9.73h-.54c0-3.27-1.39-4.53-4.93-4.53h-4.66V33.32h8.6c4.46,0,7.72-3.33,10.59-10.6h.53L165.52,34H142.66Z"/><path class="cls-1" d="M170.58,33.78c2.27,0,3.13-1.4,3.13-4.93V5.8c0-3.53-.86-4.93-3.13-4.93V.67h10.33v.2c-2.27,0-3.13,1.4-3.13,4.93V33.32h6c4.46,0,6.33-1.87,9.12-9.06h.54L190,34H170.58Z"/><path class="cls-1" d="M66.48,39.21V65.93c0,3.53.93,4.93,3.19,4.93v.2h-7v-.2c2.26,0,3.13-1.4,3.13-4.93V42.88c0-3.54-.87-4.94-3.13-4.94v-.2h7.59l11.4,25.39L93.06,37.74h7.27v.2c-2.27,0-3.2,1.4-3.2,4.94V65.93c0,3.53.93,4.93,3.2,4.93v.2H89.93v-.2c2.27,0,3.13-1.4,3.13-4.93V39.34L79.94,68.53h-.27Z"/><path class="cls-1" d="M100.66,71.06v-.2c1.26,0,2.33-1.06,2.93-2.8l10.66-30.32h1.4l10.53,29.92c.73,2.07,1.8,3.2,3.06,3.2v.2H118.58v-.2c3.27,0,4.07-1.13,2.87-4.46l-2.27-6.47H107.12l-2.26,6.47c-1.2,3.33-.4,4.46,2.86,4.46v.2Zm6.66-11.79H119l-5.79-16.53Z"/><path class="cls-1" d="M130.24,71.06v-.2c2.27,0,3.2-1.4,3.2-4.93V42.88c0-3.54-.93-4.94-3.2-4.94v-.2H142.1c6.54,0,10.4,3.34,10.4,8.87a8.62,8.62,0,0,1-6.86,8.79,4.94,4.94,0,0,1,2.2,1c4.59,4.07.93,14.46,9.52,14.46h1.14v.2h-1.74c-5.93,0-8.06-1.06-9.06-4.6L146,59.13c-.53-2.4-1.73-3.33-4.26-3.33h-4.2V65.93c0,3.53.93,4.93,3.2,4.93v.2Zm7.27-32.58V55.14h4.2c4.73,0,7.12-3.74,7.12-8.53,0-5.13-2.66-8.13-7.12-8.13Z"/><path class="cls-1" d="M164.49,70.86c2.27,0,3.13-1.4,3.13-4.93V54.14l-9.06-11.26c-3.26-4-4.46-4.94-6.39-4.94v-.2h11.46v.2c-3.8,0-1.6,2.8.13,4.94l7.26,9,8.27-10.33c1.86-2.26,1.53-3.6-.87-3.6v-.2h8.13v.2a7.9,7.9,0,0,0-6.06,3.27l-8.8,10.93V65.93c0,3.53.93,4.93,3.2,4.93v.2h-10.4Z"/><path class="cls-2" d="M22.17,54.55a.39.39,0,0,1,.22,0,.19.19,0,0,1,.08.1.24.24,0,0,1,0,.13l-.11.14q-6.45,3.59-10.6,3.58A4.11,4.11,0,0,1,9.47,58a2.23,2.23,0,0,1-1-1.61c-.09.09-.35.34-.79.74A3.79,3.79,0,0,1,5.5,58.36c-.83,0-1.27-.49-1.32-1.46a3.44,3.44,0,0,1,.55-1.67A6,6,0,0,1,6.14,53.6a2.82,2.82,0,0,1,1.78-.69A1.22,1.22,0,0,1,9,53.35a1.75,1.75,0,0,1,.31,1c0,.11,0,.17-.09.19l-.19,0-.1,0a.41.41,0,0,1-.11-.07.2.2,0,0,1,0-.14c0-.42-.26-.63-.77-.65a2,2,0,0,0-1.28.63,5.89,5.89,0,0,0-1.14,1.43,2.87,2.87,0,0,0-.46,1.36c0,.46.14.72.41.76a2.38,2.38,0,0,0,1.3-.62,17.46,17.46,0,0,0,1.71-1.62.4.4,0,0,1,.39-.21c.34,0,.51.15.51.44,0,1.45.78,2.17,2.35,2.17q4,0,10.33-3.44Z"/><path class="cls-2" d="M20.85,59.07c-.26,0-.39-.15-.39-.46a7.59,7.59,0,0,1,.45-1.94,18.48,18.48,0,0,1,1-2.42.91.91,0,0,1,.67-.47c.43,0,.65.16.65.47v0a.6.6,0,0,1-.09.28,22.1,22.1,0,0,0-1.53,3.23A22.29,22.29,0,0,1,24,55.63a4.18,4.18,0,0,1,2.26-1.08,2.33,2.33,0,0,1,1.21.27,2,2,0,0,1,.69.71,7.84,7.84,0,0,1,.45.86,3.28,3.28,0,0,0,.5,1,1.17,1.17,0,0,0,1,.4A25.17,25.17,0,0,0,37,56.19l4.2-1.64h0l0,0a.7.7,0,0,1,.21.13.27.27,0,0,1,0,.17v.07a.19.19,0,0,1-.07.12l-1.27.5q-6.94,2.77-10.07,2.78a3,3,0,0,1-2.44-.79,4.26,4.26,0,0,1-.74-1.59,3.59,3.59,0,0,0-.24-.63c0-.15-.18-.23-.41-.23A4.25,4.25,0,0,0,24,56.24a30.25,30.25,0,0,0-2.8,2.65l0,0-.12.08A.36.36,0,0,1,20.85,59.07Z"/><path class="cls-2" d="M49.12,59.63q-4.07,0-4.66-3.84A24.61,24.61,0,0,1,42,58.25a2.88,2.88,0,0,1-1.72.85c-.77,0-1.22-.49-1.34-1.46a3.34,3.34,0,0,1,.46-1.59,4.44,4.44,0,0,1,1.24-1.42A2.7,2.7,0,0,1,42.33,54a1,1,0,0,1,.82.31,1.05,1.05,0,0,1,.27.71c0,.16-.08.25-.23.25a.26.26,0,0,1-.23-.16.45.45,0,0,0-.49-.3,2.24,2.24,0,0,0-1.78,1,3.38,3.38,0,0,0-.78,2c0,.47.12.71.37.71.57,0,1.61-.8,3.14-2.4a11.59,11.59,0,0,0,.92-1A13.74,13.74,0,0,1,44.18,53a15.52,15.52,0,0,1,.71-4.44A26.18,26.18,0,0,1,46.71,44a28.68,28.68,0,0,1,2.37-3.88c1.29-1.74,2.49-2.65,3.6-2.75a1.45,1.45,0,0,1,1.12.47,2,2,0,0,1,.43,1.4,11.68,11.68,0,0,1-1.8,5,63.89,63.89,0,0,1-7.21,10.72c.22,2.71,1.52,4.12,3.9,4.25a8.91,8.91,0,0,0,5.06-1.83A24.5,24.5,0,0,0,58,54.59a.19.19,0,0,1,.11,0c.2,0,.3.07.3.23a.26.26,0,0,1-.09.18,35.26,35.26,0,0,1-3.81,2.8A9.56,9.56,0,0,1,49.12,59.63Zm-4-5.41a66.45,66.45,0,0,0,6-8.54q2.61-4.45,2.61-6.45c0-.92-.35-1.38-1-1.38s-1.42.54-2.27,1.63a22.59,22.59,0,0,0-2.5,4.1,33.24,33.24,0,0,0-2,5.09,16.17,16.17,0,0,0-.8,4.58Z"/></g></g></svg>