<svg xmlns="http://www.w3.org/2000/svg" viewBox="0 0 355.74 364.25"><g id="Layer_2" data-name="Layer 2"><g id="Layer_1-2" data-name="Layer 1"><path d="M258.19,364.25c-.16-.21-.29-.56-.48-.61a7.17,7.17,0,0,1-4.31-3.45,8.06,8.06,0,0,1-.89-3,19.22,19.22,0,0,1-.58-5.07,13.84,13.84,0,0,1,1.17-5.21c.64-1.2.87-2.62,1.58-3.76a19,19,0,0,1,3.06-3.69c1.79-1.69,3.73-3.22,5.62-4.8,2.13-1.76,4.29-3.48,6.41-5.24s4.16-3.48,6.23-5.23c1.52-1.28,3-2.6,4.52-3.85,2.17-1.77,4.45-3.41,6.54-5.26.77-.69,2.19-1.25,1.63-2.8-.38-1-.81-2-1.17-3q-.45-1.23-.81-2.49c-.3-1.05-.51-2.13-.85-3.17s-.78-2-1.15-3.07c-.25-.7-.47-1.42-.68-2.13-.35-1.17-.65-2.36-1-3.52s-.86-2.16-1.26-3.25c-.27-.7-.49-1.42-.7-2.15-.29-1-.51-2.06-.83-3.07s-.78-2.13-1.15-3.21-.62-1.9-.9-2.86-.56-2.13-.93-3.17-.83-1.9-1.21-2.86a21.08,21.08,0,0,1-.66-2c-.29-1-.5-2.11-.83-3.14s-.83-2.17-1.22-3.26c-.28-.8-.52-1.62-.77-2.44-.54-1.84-1-3.69-1.64-5.51-.31-1-.85-1.86-1.19-2.82s-.59-2.08-.93-3.33l-1.4.56a2,2,0,0,1-.52.18c-4.74.48-9.47,1.06-14.25.65-1.68-.15-3.36-.33-5-.64a62.49,62.49,0,0,1-6.17-1.4,58.13,58.13,0,0,1-6.26-2.21c-1.71-.73-3.32-1.71-5-2.59-1.38-.73-2.81-1.37-4.11-2.21a46.57,46.57,0,0,1-4.78-3.47c-1.86-1.54-3.67-3.17-5.39-4.87a43.24,43.24,0,0,1-4-4.48,60.83,60.83,0,0,1-3.58-5.4,67.57,67.57,0,0,1-3.37-6.12,51.31,51.31,0,0,1-1.66-4.9c-.37-1.05-.81-2.08-1.22-3.12a.85.85,0,0,1,0-.23c-.26-1.64-.46-3.3-.8-4.93-.28-1.31-.72-2.58-1.1-3.87a4.29,4.29,0,0,1-.15-.42c-.32-1.61-.58-3.23-1-4.82-.34-1.44-.83-2.85-1.21-4.29-.26-1-.46-2-.66-2.92-.31-1.45-.56-2.91-.9-4.34s-.86-3.08-1.26-4.62c-.27-1-.48-2-.69-3-.32-1.53-.57-3.08-.93-4.6s-.86-3-1.25-4.51c-.3-1.15-.55-2.31-.78-3.47-.29-1.48-.48-3-.83-4.45s-.85-2.77-1.24-4.17c-.26-1-.47-1.93-.67-2.91-.31-1.49-.55-3-.91-4.49s-.87-3.07-1.27-4.62c-.27-1-.47-2-.68-3-.3-1.48-.53-3-.88-4.43s-.8-3-1.21-4.43a2,2,0,0,1-.09-.33c-.27-1.5-.47-3-.81-4.5s-.77-2.71-1.16-4.07c-.07-.21-.11-.44-.16-.66-.47-1.9-.94-3.81-1.4-5.71,0-.07,0-.15-.05-.22-.28-1.55-.52-3.12-.85-4.65-.23-1.07-.59-2.11-.94-3.34l-.84-.06c-.36,1.68-.67,3.29-1.06,4.87s-.82,2.86-1.2,4.29c-.27,1-.52,2-.72,3-.32,1.55-.54,3.13-.9,4.68-.33,1.4-.8,2.76-1.2,4.14,0,.11-.06.22-.08.33-.27,1.55-.48,3.1-.83,4.63-.31,1.37-.78,2.7-1.16,4.06-.3,1.11-.6,2.23-.84,3.35-.31,1.46-.51,3-.86,4.4s-.82,2.93-1.24,4.39a1.74,1.74,0,0,0,0,.22c-.28,1.51-.5,3-.84,4.54s-.83,2.91-1.22,4.37c-.26,1-.47,2-.69,2.95-.32,1.52-.59,3.07-1,4.58s-.78,2.75-1.18,4.12c0,.11-.09.22-.11.33-.26,1.6-.47,3.22-.81,4.81-.3,1.34-.77,2.65-1.16,4,0,.11-.08.21-.1.32-.31,1.57-.57,3.16-.94,4.72s-.82,2.85-1.2,4.28c-.25,1-.43,2-.65,2.93-.3,1.41-.58,2.82-.92,4.22-.4,1.62-.85,3.23-1.27,4.85,0,.07,0,.14,0,.22-.26,1.5-.44,3-.81,4.49-.6,2.33-1.31,4.63-2,6.93a26.15,26.15,0,0,1-.84,2.64c-.6,1.47-1.25,2.91-1.94,4.34s-1.48,3-2.3,4.45a32.89,32.89,0,0,1-2.33,3.7,46.88,46.88,0,0,1-3.25,3.8,70.1,70.1,0,0,1-5.32,5.44c-2.3,2-4.78,3.77-7.27,5.53a27.19,27.19,0,0,1-3.37,1.69c-1.64.84-3.25,1.74-4.91,2.53a29.32,29.32,0,0,1-2.81,1L114.82,251a1.68,1.68,0,0,1-.3.15c-1.48.26-3,.51-4.45.78-2.18.39-4.35.83-6.53,1.19a17.24,17.24,0,0,1-2.39.11c-1.93,0-3.87.1-5.79,0-2.22-.14-4.43-.42-6.63-.72a8.52,8.52,0,0,1-1.81-.76c-.82,2.59-1.57,5-2.33,7.35l-1.44,4.49c-.46,1.43-.88,2.87-1.38,4.29-.85,2.38-1.79,4.73-2.6,7.13-.63,1.85-1.07,3.76-1.68,5.62s-1.29,3.39-1.91,5.09c-.26.72-.48,1.47-.7,2.21-.54,1.84-1.06,3.69-1.63,5.52-.32,1-.77,2-1.11,3s-.64,2.24-1,3.35-.85,2.22-1.25,3.34c-.25.69-.46,1.4-.68,2.11-.54,1.8-1.07,3.62-1.6,5.43a3.62,3.62,0,0,1-.27.74c-.73,1.19-.71,2,.28,2.84,2.2,1.94,4.41,3.87,6.68,5.73,2.46,2,5,3.92,7.48,6,1.82,1.52,3.48,3.23,5.3,4.74,2.16,1.79,4.46,3.42,6.64,5.19a55.18,55.18,0,0,1,4.86,4.29,17.67,17.67,0,0,1,2.44,3.46c.72,1.22,1.28,2.54,1.91,3.81a1.48,1.48,0,0,1,.17.42,33.19,33.19,0,0,1,.64,6.15c-.19,2.37-.52,4.84-2,6.89a7,7,0,0,1-3.59,2.74c-.31.09-.55.43-.81.65H93.9c-1.45-.51-2.91-1-4.36-1.52-1.08-.38-2.15-.8-3.22-1.19-.77-.27-1.54-.55-2.32-.78-1-.31-2.12-.53-3.16-.88-1.8-.59-3.57-1.26-5.36-1.86-1-.36-2.13-.62-3.18-1s-2.19-.83-3.3-1.22c-.79-.28-1.59-.55-2.41-.78-1-.3-2.1-.51-3.13-.85s-2-.82-3.07-1.2c-.72-.27-1.46-.5-2.2-.72-1.8-.53-3.61-1-5.41-1.6-1.07-.34-2.1-.82-3.16-1.19s-2.08-.59-3.1-.94-2.2-.81-3.31-1.21c-.72-.25-1.44-.49-2.18-.71C40,346.3,39,346,38,345.7s-2.29-.8-3.43-1.2c-.91-.31-1.84-.58-2.75-.89-1.25-.42-2.49-.88-3.75-1.29-1-.31-2-.54-2.94-.85-1.2-.37-2.38-.79-3.57-1.2-.81-.27-1.6-.58-2.41-.83-1.81-.55-3.62-1.06-5.42-1.6-1.53-.46-3.06-.89-4.56-1.44-1.74-.63-3.47-1.29-5.14-2.09a7.33,7.33,0,0,1-3.33-3.76,6.13,6.13,0,0,1-.55-3.89A18,18,0,0,1,1.73,322a13,13,0,0,1,2.41-3.28,29.87,29.87,0,0,1,4.1-3.52,26.47,26.47,0,0,1,3.37-1.54c3.07-1.57,6.39-1.23,9.66-1.38,4.79-.23,9.58-.57,14.37-.86,3-.18,6-.36,8.93-.56,3.69-.24,7.39-.47,11.08-.78a1.74,1.74,0,0,0,1.14-.86,11.2,11.2,0,0,0,.83-2.27c.31-1.1.5-2.24.85-3.32s.79-1.88,1.18-2.82c.05-.1,0-.22.08-.32.69-2.1,1.4-4.2,2.07-6.3.32-1,.52-2,.84-3s.84-2.19,1.21-3.29.59-2.16.95-3.22.79-2.11,1.18-3.17c.27-.75.53-1.51.76-2.28.55-1.84,1-3.7,1.64-5.52s1.31-3.48,2-5.23c.27-.72.48-1.46.69-2.19.3-1.06.54-2.13.87-3.17s.81-2.21,1.2-3.33c.25-.73.47-1.48.7-2.23.33-1.09.62-2.19,1-3.27s.94-2.12,1.24-3.22a11,11,0,0,0,.18-2.31l-4.41-2.45c-1.33-.74-2.68-1.45-4-2.22-.69-.41-1.31-.94-2-1.4a53,53,0,0,1-9.23-8.08,73.08,73.08,0,0,1-5.06-6.41,41.33,41.33,0,0,1-2.48-4.48c-.88-1.62-1.84-3.21-2.58-4.9s-1.12-3.2-1.65-4.81c-.41-1.22-.78-2.45-1.17-3.68a2.15,2.15,0,0,1-.13-.32c-.28-1.75-.49-3.51-.86-5.24a45,45,0,0,1-.59-11,53.25,53.25,0,0,1,.71-6.9,49.59,49.59,0,0,1,1.4-6.14c.52-1.79,1.31-3.49,1.95-5.25.32-.86.57-1.75.88-2.62a21.29,21.29,0,0,1,.81-2c.37-.81.88-1.57,1.21-2.39.8-1.92,1.48-3.89,2.29-5.8.58-1.36,1.36-2.62,1.94-4s1-2.69,1.54-4,1.2-2.74,1.78-4.12,1.17-2.89,1.8-4.31,1.28-2.67,1.9-4c.3-.63.54-1.29.79-1.94.8-2,1.54-4,2.39-6,.56-1.33,1.31-2.58,1.88-3.91s1-2.71,1.53-4,1.3-2.7,1.92-4.06c.35-.76.59-1.57.93-2.34s.82-1.71,1.19-2.58.6-1.62.93-2.42c.58-1.41,1.17-2.82,1.76-4.24s1.21-3,1.86-4.41,1.23-2.62,1.84-3.93c.3-.63.58-1.28.83-1.93.8-2,1.54-4,2.38-6,.56-1.33,1.3-2.58,1.88-3.91s1-2.69,1.53-4,1.09-2.57,1.65-3.85c.41-1,.82-1.92,1.26-2.87.34-.76.75-1.5,1.09-2.27s.64-1.57,1-2.35c.64-1.51,1.3-3,1.93-4.52s1.11-2.86,1.71-4.27c.35-.79.84-1.52,1.2-2.3s.58-1.49.86-2.24a9.39,9.39,0,0,1,4.65-5.42,9,9,0,0,1,5-1.19,22.52,22.52,0,0,1,3.93,1.08c.84.25,1.66.55,2.51.79,1.08.3,2.19.5,3.25.85s1.94.83,2.93,1.21c.68.27,1.39.48,2.1.69,1.84.54,3.69,1,5.52,1.61,1,.33,2,.81,3.06,1.16s2.17.61,3.23,1,2.11.8,3.18,1.18c.76.27,1.53.51,2.3.74,1.77.54,3.54,1.06,5.3,1.62,1.05.33,2.07.76,3.12,1.1s2.32.68,3.47,1,2.18.78,3.27,1.17c.73.26,1.45.55,2.18.78,1.81.55,3.64,1,5.44,1.61,1.1.36,2.15.88,3.25,1.25s2.13.54,3.16.89,2.2.84,3.3,1.24c.69.25,1.4.47,2.1.69,1.76.53,3.53,1.05,5.29,1.59.34.11.66.31,1,.43s.68.29.94.2c1.73-.6,3.43-1.27,5.14-1.9.76-.28,1.53-.53,2.31-.76,1.08-.31,2.19-.54,3.26-.89s2-.79,3-1.17c.69-.25,1.39-.47,2.1-.69,1.8-.56,3.62-1.08,5.42-1.66,1.15-.37,2.26-.84,3.41-1.22s2.1-.58,3.14-.93,2.11-.8,3.18-1.19c.73-.26,1.47-.49,2.21-.72,1-.31,2-.57,3.06-.92s2.26-.85,3.4-1.26c.72-.25,1.46-.47,2.2-.68,1.08-.31,2.18-.56,3.25-.91s2.09-.82,3.15-1.21c.75-.28,1.52-.51,2.29-.74,1.83-.55,3.68-1,5.5-1.63,1-.32,2-.8,3-1.14s2.17-.61,3.25-1,2.12-.8,3.19-1.19c.72-.26,1.44-.52,2.18-.73,1.16-.33,2.34-.64,3.51-.94a9.55,9.55,0,0,1,2.07-.48,10.5,10.5,0,0,1,5.7,1.57,10,10,0,0,1,4.13,5.35c.76,2,1.8,3.81,2.62,5.75s1.46,3.89,2.27,5.81c.59,1.4,1.33,2.74,2,4.12.3.66.52,1.35.8,2,.42,1,.89,1.91,1.3,2.88.52,1.21,1,2.45,1.51,3.67.64,1.51,1.32,3,2,4.51.3.7.58,1.41.89,2.11.42,1,.89,1.92,1.29,2.89.55,1.37,1,2.77,1.58,4.12s1.29,2.75,1.93,4.14c.29.63.54,1.28.78,1.94.32.85.56,1.73.92,2.56.56,1.31,1.23,2.58,1.81,3.88s1.07,2.55,1.63,3.82c.65,1.47,1.35,2.93,2,4.4.29.65.55,1.32.81,2,1,2.5,1.93,5,3,7.49.81,1.91,1.79,3.74,2.61,5.64.6,1.37,1,2.83,1.6,4.2s1.3,2.68,1.94,4c.28.6.51,1.23.75,1.86.53,1.38,1,2.79,1.59,4.15s1.32,2.65,1.92,4,1.09,2.82,1.68,4.21,1.26,2.71,1.87,4.08c.31.68.56,1.4.85,2.09l1.86,4.45c.38.92.72,1.85,1.12,2.76s.77,1.53,1.11,2.3a16.37,16.37,0,0,1,.85,2.2c.54,1.89,1,3.8,1.52,5.7.38,1.44.77,2.87,1.15,4.31a2.36,2.36,0,0,1,.11.44c.48,4.54,1.3,9.08.78,13.66-.36,3.18-.81,6.35-1.46,9.48a58.5,58.5,0,0,1-1.94,6c-.3.92-.45,1.89-.83,2.76-.57,1.28-1.27,2.49-1.92,3.72s-1.45,2.76-2.24,4.09a30.24,30.24,0,0,1-2.45,3.72c-2,2.44-4,4.84-6.15,7.14a35.88,35.88,0,0,1-3.8,3.37c-1.41,1.15-2.82,2.31-4.33,3.31s-2.89,1.64-4.36,2.42-2.84,1.42-4.22,2.21a1.16,1.16,0,0,0-.42,1c.38,1.41.88,2.79,1.33,4.18.27.82.56,1.64.79,2.47.31,1.09.51,2.21.86,3.29s.79,2,1.16,3c.3.84.57,1.7.82,2.56.32,1.1.55,2.23.92,3.31s.82,1.93,1.2,2.91c.27.71.5,1.44.71,2.17.3,1,.51,2,.84,3,.37,1.15.84,2.26,1.24,3.4.25.7.47,1.4.68,2.11.33,1.13.61,2.28,1,3.39s.78,2,1.17,3c.05.14.1.28.14.42.67,2,1.36,4.09,2,6.14.56,1.79,1.05,3.6,1.61,5.39.33,1,.79,2,1.13,3.07s.68,2.23,1,3.35a14.72,14.72,0,0,0,.81,2.69,2,2,0,0,0,1.43.8c1.89.14,3.79.1,5.68.2,4.27.23,8.53.51,12.79.76,3.85.22,7.7.42,11.55.66,3.27.2,6.56.37,9.82.74a20,20,0,0,1,3.72,1.18,13.51,13.51,0,0,1,2.65.88,25.57,25.57,0,0,1,3.38,2.4,19.54,19.54,0,0,1,4.84,6.47,8.24,8.24,0,0,1,.76,6.16,7,7,0,0,1-4,4.83c-1.29.5-2.61.95-3.9,1.46-1,.38-1.94.87-2.94,1.23s-1.82.51-2.72.8c-1.29.41-2.56.85-3.84,1.27-.71.23-1.42.46-2.13.67-1.18.34-2.37.63-3.53,1s-2,.83-3,1.19-1.81.54-2.7.82l-3.76,1.25c-.87.28-1.74.57-2.6.87-1.33.46-2.64,1-4,1.4-1,.32-2.08.49-3.09.81s-2.18.84-3.28,1.25c-.73.27-1.48.52-2.24.74-1,.29-2.07.53-3.1.8a9.71,9.71,0,0,1-1,.34,3.74,3.74,0,0,1-1.64.15,9.6,9.6,0,0,1-2.6-1.2,4.74,4.74,0,0,1-1.34-1.6,8.11,8.11,0,0,1-.7-2c-.44-1.82.58-3.18,1.58-4.49a3.53,3.53,0,0,1,1.63-1c1.75-.6,3.55-1.05,5.3-1.63,1-.33,1.94-.84,2.92-1.2.81-.3,1.65-.51,2.48-.75,1.78-.52,3.58-1,5.34-1.55s3.47-1.35,5.21-2c.72-.27,1.46-.48,2.2-.68,1.09-.31,2.19-.53,3.26-.88s2-.82,3.06-1.2c.71-.27,1.44-.5,2.17-.72,1.8-.54,3.62-1,5.42-1.6,1.08-.34,2.12-.79,3.18-1.19.85-.32,2-.09,2.4-1.26a11.12,11.12,0,0,0-7.58-2.59c-5.45-.11-10.88-.51-16.32-.81q-5.84-.31-11.65-.66c-3.32-.2-6.63-.44-9.95-.59a2.6,2.6,0,0,0-1.54.56c-1.44,1.14-2.79,2.4-4.23,3.56-2.17,1.75-4.42,3.41-6.57,5.19-2.4,2-4.7,4.09-7.1,6.09-2.15,1.79-4.39,3.48-6.55,5.26-1.83,1.51-3.48,3.26-5.42,4.6a13,13,0,0,0-3.12,3.38,9.17,9.17,0,0,0-.78,2.61,7.46,7.46,0,0,0,2.27,0c1.69-.55,3.31-1.34,5-1.94,1-.37,2.07-.51,3.09-.85s2.07-.95,3.15-1.19a14.23,14.23,0,0,1,3.39-.24,5.05,5.05,0,0,1,2.66,9.2,19.41,19.41,0,0,1-3.65,1.54l-2.89,1.19-.43.13-4,1.31-2.75.85c-1.84.54-3.69,1.05-5.52,1.62a4.88,4.88,0,0,0-1.06.6ZM147.69,188.78a2.12,2.12,0,0,0-.36-.13,5.55,5.55,0,0,0-.91,0c-3.25.24-6.5-.22-9.78.53-2.28.52-4.76.14-7.14.24a4.45,4.45,0,0,1-4.71-2.79,5.45,5.45,0,0,1,4.82-7.79c3.15-.4,6.35-.29,9.53-.72a74.17,74.17,0,0,1,10.12-.16,1.41,1.41,0,0,0,1.45-1.17c.3-1,.51-2,.71-3,.3-1.53.55-3.07.82-4.6a4.92,4.92,0,0,1,.14-.55c.42-1.66.87-3.31,1.26-5,.32-1.33.53-2.7.88-4,.6-2.34,1.31-4.65,1.89-7,.36-1.5.56-3,.84-4.55,0-.15.07-.3.11-.44.41-1.46.86-2.9,1.2-4.37s.58-3,.89-4.53c.21-1,.48-2,.71-3s.45-2.1.73-3.14c.39-1.51.88-3,1.24-4.51s.56-3,.89-4.41c.43-1.91.92-3.81,1.38-5.71.07-.25.13-.51.2-.76.38-1.32.81-2.63,1.11-4s.55-3,.82-4.5a3.23,3.23,0,0,1,.06-.33c.41-1.44.88-2.86,1.22-4.31s.57-3,.87-4.44c.22-1,.47-2.1.73-3.14.42-1.65.85-3.31,1.29-4.95a13.47,13.47,0,0,1,.57-1.8,1.38,1.38,0,0,0-1.13-2.06,8,8,0,0,1-1.1-.24c-1.09-.37-2.17-.8-3.27-1.16s-2.24-.65-3.35-1-2-.79-3-1.11c-1.83-.57-3.67-1.07-5.51-1.62-.74-.22-1.48-.43-2.19-.7-1-.39-2-.87-3.05-1.22s-2.17-.61-3.26-.91c-.73-.21-1.48-.4-2.19-.66-1.75-.65-3.46-1.41-5.23-2s-3.64-1-5.46-1.55c-.77-.22-1.54-.45-2.28-.73-1-.38-1.91-.86-2.9-1.2s-2.2-.61-3.3-.94c-.82-.24-1.62-.53-2.42-.8-1.19-.41-2.36-.84-3.55-1.22-1-.32-2-.56-3.06-.87-.76-.23-1.51-.51-2.26-.78-1-.37-2.05-.78-3.09-1.13s-2.27-.71-3.41-1c-.72-.2-1.46-.36-2.13-.53-.46,1.26-.78,2.28-1.2,3.25-.84,1.93-1.74,3.83-2.61,5.75-.27.58-.53,1.16-.75,1.76-.3.81-.5,1.66-.85,2.45-.58,1.3-1.29,2.56-1.88,3.86-.74,1.63-1.41,3.29-2.11,4.93-.28.66-.58,1.32-.83,2s-.47,1.57-.8,2.32c-.64,1.45-1.36,2.86-2,4.31s-1.33,3-2,4.48c-.32.73-.63,1.46-.9,2.21s-.46,1.67-.81,2.45c-.61,1.37-1.38,2.68-2,4.07-.82,1.91-1.52,3.87-2.29,5.8-.25.62-.58,1.21-.86,1.81-.38.84-.78,1.67-1.14,2.52s-.58,1.63-.93,2.42c-.86,1.94-1.76,3.86-2.64,5.78-.26.59-.51,1.18-.73,1.78-.31.84-.52,1.72-.89,2.53-.58,1.32-1.3,2.57-1.88,3.89s-1.08,2.8-1.62,4.19c-.27.69-.54,1.38-.85,2-.6,1.28-1.26,2.52-1.82,3.81s-1,2.8-1.64,4.16c-.83,1.88-1.77,3.72-2.62,5.6-.71,1.59-1.38,3.19-2,4.8-.82,2-1.58,4.1-2.42,6.13a14.46,14.46,0,0,1-1.16,2.16,1.36,1.36,0,0,0,.92,2.08,15.69,15.69,0,0,1,2.35.84c1.54.64,3.06,1.35,4.62,2,.93.36,1.92.57,2.87.89,1.94.63,3.85,1.36,5.82,1.91s4,.95,6,1.36a41.63,41.63,0,0,0,4.31.71c3.67.35,7.35.65,11,.93,2.86.21,5.73.33,8.59.55a4.45,4.45,0,0,1,3.9,4.06c0,.72,0,1.45,0,2.16.14,1.48-.89,2.31-1.84,3a6.65,6.65,0,0,1-4.71,1.29c-1.12-.1-2.24-.27-3.36-.35L86,190a3.47,3.47,0,0,1-.45-.06l-6.25-1.25c-1.44-.29-2.88-.56-4.32-.87a26.56,26.56,0,0,1-2.8-.68c-2-.63-3.89-1.36-5.84-2-1-.32-2-.53-3-.83a20.42,20.42,0,0,1-2.15-.78c-.91-.38-1.79-.83-2.69-1.24L55.68,181a5.63,5.63,0,0,0-.81,1.36c-.51,1.79-1,3.58-1.36,5.4a46.29,46.29,0,0,0-.74,6,32.29,32.29,0,0,0,.56,9.19,54.73,54.73,0,0,1,.82,5.6,1.66,1.66,0,0,0,.06.21c.67,1.77,1.29,3.55,2,5.3.54,1.31,1.15,2.6,1.82,3.86s1.55,2.78,2.41,4.11a35.63,35.63,0,0,0,2.6,3.62,44.91,44.91,0,0,0,3.72,4,62.46,62.46,0,0,0,6.12,5.15,41,41,0,0,0,5.78,3.1,60.76,60.76,0,0,0,5.7,2.59,36,36,0,0,0,5.33,1.38c1.65.33,3.34.49,5,.7,4.25.55,8.43-.34,12.63-.69a23.39,23.39,0,0,0,2.94-.64,3.15,3.15,0,0,0,.44-.11l3.31-1.21c1-.36,2.07-.65,3.06-1.07,1.23-.54,2.44-1.14,3.62-1.78a37.43,37.43,0,0,0,4.24-2.5,56.3,56.3,0,0,0,4.71-3.9,65.54,65.54,0,0,0,4.73-4.7,37.38,37.38,0,0,0,3.46-4.65,47.48,47.48,0,0,0,2.31-4.49c.35-.71.65-1.45,1-2.18a25.53,25.53,0,0,0,1.08-2.66c.37-1.27.61-2.59.9-3.89.25-1.09.44-2.19.73-3.26.36-1.32.87-2.6,1.18-3.93.36-1.49.57-3,.85-4.55,0-.15.07-.29.11-.44.42-1.65.86-3.3,1.27-5C147.41,190.24,147.53,189.58,147.69,188.78ZM251,180.53v.16c1.8-.16,3.6-.32,5.4-.46l12.53-1a3.83,3.83,0,0,0,.56-.09c1.79-.4,3.57-.84,5.37-1.2,1.48-.29,3-.5,4.48-.75l.22-.07c1.17-.41,2.32-.85,3.51-1.22,1.8-.57,3.62-1.07,5.42-1.63a22.29,22.29,0,0,0,2.35-.9c1.33-.58,2.61-1.27,4-1.79,1-.39,1.42-1.12.88-2.09a10,10,0,0,1-.49-1c-.35-.84-.66-1.7-1-2.54-.56-1.25-1.2-2.47-1.75-3.74-.35-.81-.56-1.69-.87-2.52a17.76,17.76,0,0,0-.73-1.68c-.65-1.34-1.38-2.64-2-4-.8-1.92-1.45-3.91-2.24-5.84-.66-1.65-1.43-3.25-2.14-4.88-.3-.68-.53-1.39-.85-2.06-.6-1.26-1.31-2.48-1.86-3.76s-1-2.81-1.57-4.21c-.26-.69-.53-1.38-.85-2-.62-1.33-1.33-2.61-1.9-4s-1-2.73-1.55-4.1c-.24-.64-.44-1.31-.74-1.93s-.86-1.45-1.19-2.22c-.58-1.39-1.06-2.82-1.63-4.22-.66-1.59-1.38-3.15-2.06-4.73-.31-.72-.54-1.46-.87-2.16-.6-1.31-1.29-2.57-1.86-3.89s-1.08-2.81-1.63-4.21c-.25-.64-.52-1.29-.81-1.92-.61-1.3-1.27-2.59-1.85-3.91s-1.2-2.89-1.8-4.34-1.21-2.88-1.83-4.31c-.39-.88-.82-1.75-1.21-2.64-.3-.67-.59-1.35-.85-2s-.57-1.66-.91-2.47c-.68-1.62-1.4-3.21-2.09-4.82-.27-.64-.48-1.31-.77-1.94a27.3,27.3,0,0,1-1.87-4.09c-.33-1.2-1-1.11-1.75-.89-1.52.42-3,.94-4.52,1.42l-2,.65c-.82.27-1.64.52-2.45.82-1.07.39-2.11.86-3.19,1.21s-2.09.48-3.09.83c-1.78.63-3.51,1.39-5.29,2-2,.73-4.07,1.39-6.11,2q-2.34.75-4.7,1.45c-1.85.55-3.7,1.07-5.55,1.61-.76.23-1.51.5-2.27.74s-1.55.46-2.3.74c-1,.38-2,.87-3.05,1.22s-2.18.56-3.25.92c-1.76.59-3.49,1.28-5.26,1.86s-3.59,1.08-5.38,1.62c-.82.24-1.64.5-2.46.77-1.23.42-2.43,1-3.68,1.27a1.47,1.47,0,0,0-1.11,2.22,5.54,5.54,0,0,1,.44,1.45c.32,1.48.61,3,.92,4.44.2.94.39,1.89.64,2.82.65,2.43,1.38,4.85,2,7.29.37,1.48.55,3,.82,4.51a2.15,2.15,0,0,0,.09.44c.41,1.46.87,2.91,1.22,4.38s.6,3.05.92,4.57c.21,1,.44,2,.7,3,.38,1.4.85,2.77,1.18,4.17.37,1.6.63,3.22.94,4.83,0,.15.11.28.15.43.37,1.29.82,2.57,1.11,3.88.33,1.5.53,3,.79,4.55,0,.07,0,.14,0,.21.43,1.6.88,3.2,1.28,4.81.35,1.44.65,2.9,1,4.36.22,1,.42,2,.67,2.94.39,1.46.87,2.9,1.21,4.37s.56,3,.83,4.46a1.8,1.8,0,0,0,.06.22c.41,1.49.88,3,1.24,4.48s.54,2.94.87,4.39c.41,1.85.9,3.68,1.34,5.53.19.81.51,1.42,1.48,1.47,4.39.25,8.79-.35,13.18.59a67.66,67.66,0,0,0,8.33.73c2.86.24,5.7.57,8.56.72C241.27,180.2,246.11,180.34,251,180.53Zm49.17.4-.4,0c-.15.16-.26.41-.44.47-1.41.54-2.83,1-4.25,1.57-.67.25-1.35.48-2,.76-1,.39-1.89.87-2.87,1.21s-2.26.65-3.39,1c-1.52.44-3,.92-4.57,1.31-1.22.31-2.49.47-3.71.77-1.48.37-2.92.93-4.41,1.2a30.73,30.73,0,0,0-4.5.66,20.76,20.76,0,0,1-5.24.71q-6.74.42-13.47.67a29.15,29.15,0,0,1-3.6-.31c-4.74-.41-9.53.08-14.25-.83-2.27-.44-4.6-.14-6.94-.61-3-.61-6.17-.23-9.28-.75a49.42,49.42,0,0,0-7.61-.15c-.46,0-.93.09-1.57.15.31.42.59.65.66.92.3,1.27.53,2.55.79,3.83.32,1.57.64,3.14,1,4.71.21,1,.42,2,.67,2.95.4,1.57.87,3.12,1.24,4.7.33,1.4.55,2.82.82,4.23a.86.86,0,0,0,.07.21l1.21,3.07c.55,1.39,1.07,2.79,1.65,4.17a10.14,10.14,0,0,0,.82,1.52c.58.92,1.19,1.84,1.81,2.74.85,1.24,1.63,2.54,2.58,3.7a48.5,48.5,0,0,0,3.84,4.14,40.83,40.83,0,0,0,3.79,3.15,36.79,36.79,0,0,0,3.22,2.15c1.56,1,3.12,1.89,4.74,2.73,1.2.62,2.5,1.06,3.75,1.59a24.8,24.8,0,0,0,2.83,1.17c1.34.38,2.72.59,4.09.85,2.19.43,4.37.93,6.58,1.22,4.1.53,8.13-.41,12.2-.71a2.76,2.76,0,0,0,.54-.16l4.1-1.14a25.51,25.51,0,0,0,2.9-.86c1.35-.58,2.66-1.27,4-2a52.73,52.73,0,0,0,5.46-3c1.67-1.15,3.08-2.66,4.67-3.93a40.82,40.82,0,0,0,7.45-8.25,43.53,43.53,0,0,0,3.59-6.31,40,40,0,0,0,2.09-5.32,42.08,42.08,0,0,0,1.47-5.61,33.37,33.37,0,0,0,.7-6.28c0-3.28-.31-6.55-.61-9.81a30.37,30.37,0,0,0-.94-4.49C301,183.39,300.53,182.17,300.12,180.93ZM93.05,352.14c-.24-.79-.38-1.28-.55-1.75A6.18,6.18,0,0,0,92,349.3a11.16,11.16,0,0,0-2.83-3.15c-2.43-1.9-4.68-4-7-6s-4.79-3.91-7.2-5.85c-1.23-1-2.53-1.94-3.73-3-2-1.76-3.94-3.61-6-5.36-1.62-1.4-3.31-2.73-5-4a4.12,4.12,0,0,0-3.08-1.13c-2.84.3-5.71.43-8.57.64-4,.29-8,.14-12,.59-6,.68-12.15.73-18.24.94a10.36,10.36,0,0,0-6.44,2.73c.78.35,1.32.66,1.9.85,1,.33,2,.55,3,.88s2.19.86,3.3,1.23,2.12.6,3.18.91c.76.23,1.53.46,2.28.74,1,.37,2,.84,3.05,1.18s2.18.57,3.25.92,2.15.88,3.26,1.23c1.79.57,3.6,1.06,5.4,1.6q1.06.32,2.1.69c1.13.41,2.25.87,3.4,1.26s2.31.68,3.45,1.07c1,.32,1.91.76,2.89,1.07,1.8.57,3.62,1.07,5.43,1.63,2.12.65,4.23,1.33,6.34,2l.43.13c1,.39,1.91.83,2.9,1.17s2.27.67,3.41,1c.71.21,1.42.39,2.11.65,1,.37,1.93.86,2.92,1.18s2.18.57,3.26.86c.84.23,1.67.47,2.48.77,1,.37,2,.84,3.09,1.22s2.35.8,3.53,1.19c1,.34,2,.74,3,1A7.2,7.2,0,0,0,93.05,352.14Z"/><path d="M177.77,0A8.71,8.71,0,0,1,184,3.41a22,22,0,0,1,1.63,3.17,33,33,0,0,0,2.18,3.5c1.34,1.82,2.7,3.64,4.2,5.33a34.89,34.89,0,0,0,4.46,4.39c1.58,1.25,3.45,2.13,5.14,3.24s3.83,1.61,5,3.45a8.48,8.48,0,0,1,1,2.07,8,8,0,0,1,.59,3,16,16,0,0,1-1.06,3,3.4,3.4,0,0,1-1.45,2c-1.12.72-2.28,1.38-3.42,2.08a24.91,24.91,0,0,1-3.33,2c-1.86.76-3.05,2.29-4.45,3.55a39.32,39.32,0,0,0-3.94,4.12c-1.44,1.76-2.8,3.6-4.07,5.49a45,45,0,0,0-2.26,4.08,6.39,6.39,0,0,1-4,3.45,7.75,7.75,0,0,1-6.15-.58,10.81,10.81,0,0,1-3.35-3.76c-.9-1.48-1.93-2.88-2.68-4.42-1.49-3-3.85-5.41-6.14-7.74a16.81,16.81,0,0,0-5.16-4.11,32.71,32.71,0,0,1-3.87-2.41,18,18,0,0,1-3.09-1.86,11,11,0,0,1-1.88-2.9,4.81,4.81,0,0,1-.54-1.92,7.28,7.28,0,0,1,3-6.46,25.9,25.9,0,0,1,2.82-1.47c1.56-.94,3.12-1.89,4.61-2.95A25.1,25.1,0,0,0,161,18c1.44-1.43,2.8-2.93,4.16-4.43.5-.55.9-1.17,1.35-1.76a43.36,43.36,0,0,0,4.34-7c.92-1.82,2.1-3.55,4.4-4A20,20,0,0,0,177.77,0Zm.43,47.1a51.76,51.76,0,0,1,15.28-15.78c0-1-.67-1.05-1.25-1.4a23.49,23.49,0,0,1-3.47-2.76,61.51,61.51,0,0,1-5.15-5.06c-1.82-2.13-3.36-4.49-5.09-6.7a1.32,1.32,0,0,0-1.27-.18c-.38.22-.56.79-.86,1.2a53.52,53.52,0,0,1-3.27,4.34c-1.64,1.82-3.54,3.4-5.16,5.22a24,24,0,0,1-5.27,4.22c-.27.17-.46,1.08-.31,1.21a30.9,30.9,0,0,0,4.43,3.51,22.75,22.75,0,0,1,4.54,4.21c1.53,1.61,2.85,3.41,4.22,5.17.66.86,1.21,1.81,1.85,2.8Z"/><path d="M40.33,75.6c.83,0,1.67-.07,2.5,0a44.72,44.72,0,0,1,6.76.8,7.08,7.08,0,0,1,3,2.22A4.37,4.37,0,0,1,53.29,83a5.18,5.18,0,0,1-3,3.42,6,6,0,0,1-3.88.45c-2.9-.71-5.86-.26-8.73-.71-1.6-.26-3.41-.63-4.53-2.19a5.89,5.89,0,0,1-.6-5.55c.58-1.27,1.67-1.81,2.53-2.67.15-.15.5-.14.75-.14h4.55Z"/><path d="M315.39,75.5h3.41A4.58,4.58,0,0,1,323,78.12a5.65,5.65,0,0,1,.57,3.67c-.12,1.67-2.24,3.33-3.8,3.86-2.67.91-5.38.4-8.05.68a29.56,29.56,0,0,1-4.64.52,5.12,5.12,0,0,1-4.18-2.76,5.78,5.78,0,0,1-.5-4,4.48,4.48,0,0,1,2.37-3,7.69,7.69,0,0,1,2.85-.74c2.59-.35,5.19-.61,7.78-.91Z"/><path d="M87,30.8c-1.68.34-2.93-.59-4.14-1.52a3.82,3.82,0,0,1-.87-1.4c-.54-1.2-1-2.43-1.55-3.63s-1.13-2.36-1.68-3.54c-.43-.93-.85-1.86-1.23-2.81A5.58,5.58,0,0,1,76.9,16a5.36,5.36,0,0,1,5.66-5.29c1.45.14,2.85.4,3.79,1.68A9.91,9.91,0,0,1,87.47,14c1.17,2.44,2.31,4.91,3.42,7.38A16.64,16.64,0,0,1,92.27,25a5,5,0,0,1-1.49,4.41A4,4,0,0,1,87,30.8Z"/><path d="M295.72,53.57a4.57,4.57,0,0,1-4.91-3.1c-1.28-3-.39-5.29,2.46-6.95,1.22-.7,2.27-1.7,3.43-2.5,1.88-1.3,3.73-2.66,5.73-3.77,1.8-1,5,.13,6.29,1.76a5.09,5.09,0,0,1,1.15,3.24,4.51,4.51,0,0,1-1.45,3.48c-1.17,1-2.36,1.89-3.58,2.77-1.82,1.29-3.7,2.51-5.52,3.8C298.17,53.12,297,53.88,295.72,53.57Z"/><path d="M59.92,53.59c-2.08.27-3.5-1.27-5.12-2.35s-3.39-2.24-5-3.45c-1.17-.87-2.57-1.71-3.21-2.92s-1.3-2.41-.54-4a7,7,0,0,1,2.38-3.15,2.91,2.91,0,0,1,1-.52,7.18,7.18,0,0,1,6.12,1.56c1.23,1,2.59,1.81,3.89,2.72s2.63,1.83,3.91,2.8a5.11,5.11,0,0,1,2,5.25C65,51.81,62.58,53.58,59.92,53.59Z"/><path d="M268.5,30.81c-2,.42-3.38-.92-4.4-2.36a6,6,0,0,1-.78-3.37,7.16,7.16,0,0,1,1-2.44c.54-1.2,1.05-2.4,1.61-3.58.65-1.37,1.35-2.71,2-4.06a12.94,12.94,0,0,0,.74-1.55c.71-2.13,2.47-2.57,4.38-2.75a5.24,5.24,0,0,1,5.58,5.48,7.23,7.23,0,0,1-.65,2.35c-.68,1.65-1.43,3.27-2.18,4.88-.66,1.44-1.29,2.9-2.07,4.27C272.64,29.65,271.12,31.12,268.5,30.81Z"/></g></g></svg>