<?xml version="1.0" encoding="utf-8"?>
<!-- Generator: Adobe Illustrator 24.1.0, SVG Export Plug-In . SVG Version: 6.00 Build 0)  -->
<svg version="1.1" id="Layer_1" xmlns="http://www.w3.org/2000/svg" xmlns:xlink="http://www.w3.org/1999/xlink" x="0px" y="0px"
	 viewBox="0 0 439.9 442.5" style="enable-background:new 0 0 439.9 442.5;" xml:space="preserve">
<style type="text/css">
	.st0{enable-background:new    ;}
	.st1{fill:#546740;}
	.st2{fill:#E2C799;}
</style>
<g id="Layer_2_1_">
	<g id="Layer_1-2">
		<g class="st0">
			<path class="st1" d="M99.1,48.3c0-0.4,0.3-0.9,1-1.5c0.7-0.6,1.3-0.9,2-0.9c1.4,0,2.2,0.7,2.4,2.2c0.1,1.5,0.3,2.8,0.6,3.9
				c0.1,1.4,0.2,2.7,0.3,3.7c0.1,1,0.2,2.3,0.5,3.8c0.3,1.7,0.6,4,1,6.8c0.4,2.8,0.8,5.8,1.3,8.8c0.5,3,0.9,5.9,1.2,8.7
				c0.3,2.8,0.5,4.9,0.5,6.3c0.1,1.5,0.3,2.7,0.5,3.9c0.2,1.1,0.3,2.6,0.3,4.4c0,1.4,0,2.8-0.1,3.9c-0.1,1.2,0,2.5,0.3,3.9
				c0.3,2.1,0.3,3.6,0.2,4.4c-0.1,0.9-0.3,2.1-0.4,3.7l-0.8,16.6c-0.5,7.9-1.7,17.2-3.5,28c-1.8,10.8-3.9,21.8-6.4,33
				c-2.5,11.2-5.2,22-8.1,32.4c-2.9,10.4-5.8,19.2-8.7,26.3c-0.5,1.4-1.3,3.3-2.4,5.4c-1.1,2.2-2.2,4.2-3.5,6.2
				c-1.3,2-2.7,3.7-4.2,5.1c-1.6,1.4-3.2,2.2-4.9,2.2h-2.4c-3,0-5.8-2.3-8.2-6.8c-2.4-4.5-4.6-10.3-6.5-17.3
				c-1.9-7-3.6-14.7-4.9-23.3c-1.4-8.6-2.6-16.8-3.6-24.8c-1-8-1.8-15.2-2.4-21.7c-0.6-6.5-1-11.2-1.3-14.1
				c-0.3-4.2-0.5-8.5-0.7-12.9c-0.2-4.4-0.6-8.5-1.1-12.3c-0.1-1.2-0.2-2.3-0.1-3.5c0.1-1.1,0.1-2.3,0.1-3.5
				c-0.1-1.2-0.3-2.1-0.4-2.8c-0.1-0.7-0.2-1.8-0.2-3.4c0-0.9-0.1-3.2-0.3-6.8c-0.2-3.6-0.5-7.5-0.8-11.6c-0.3-4.1-0.8-7.9-1.3-11.4
				c-0.5-3.4-1.1-5.4-1.8-5.9c-0.4,1.6-0.9,3.1-1.4,4.6c-0.5,1.5-1,3.1-1.4,4.6c-1.8,6.3-3.8,14.2-5.9,23.8
				c-2.1,9.5-4.1,19.4-6,29.5c-1.9,10.1-3.6,20-5,29.5c-1.4,9.5-2.4,17.4-3,23.6c-0.5,5.9-1,11.1-1.4,15.4c-0.4,4.3-0.7,8.6-1,12.7
				c-0.3,4.1-0.5,8.5-0.6,12.9c-0.1,4.5-0.2,9.7-0.2,15.8c0,2,0.1,4,0.3,6.1c0.2,2.1,0.3,4.1,0.4,5.9c0.1,1.8,0,3.4-0.3,4.5
				c-0.3,1.2-0.9,1.8-2,1.8c-1.6,0-2.5-0.4-2.9-1.3c-0.3-0.9-0.6-2.2-0.9-4l-1-14.2c-0.3-4.9-0.3-10.9,0-18.2
				c0.3-7.2,0.7-14.7,1.4-22.5c0.7-7.8,1.4-15.3,2.2-22.7c0.8-7.4,1.5-13.7,2.2-19c0.4-2.2,1.1-6,2-11.4c0.9-5.3,2-11.4,3.4-18.2
				c1.3-6.8,2.8-13.9,4.3-21.4c1.6-7.5,3.2-14.5,4.8-21c1.6-6.5,3.2-12.1,4.6-16.9c1.4-4.7,2.8-7.8,3.9-9.3c1.3-1.7,3-2.6,4.9-2.6
				c1.2,0,2.4,0.5,3.8,1.6c1.3,1.3,2.5,4,3.5,8.1c1,4.1,1.8,8.5,2.6,13.3c0.7,4.8,1.3,9.4,1.7,13.9c0.4,4.5,0.6,7.8,0.6,9.9
				l4.3,63.2c0.7,5.5,1.2,11.2,1.8,17.1c0.5,5.9,1.2,12.1,2.2,18.9c0.3,1.6,0.8,4.6,1.5,9.1c0.7,4.5,1.6,9.1,2.8,13.8
				c1.1,4.7,2.4,9,3.9,12.7c1.4,3.8,3,5.6,4.5,5.6c1.7,0,3.5-1.5,5.4-4.6c1.9-3.1,3.8-7,5.6-11.6c1.8-4.7,3.6-9.8,5.3-15.4
				c1.7-5.6,3.2-10.9,4.5-16c1.3-5.1,2.4-9.5,3.4-13.3c0.9-3.8,1.5-6.3,1.8-7.3c3.4-15.3,6.2-30.1,8.3-44.5
				c2.1-14.4,3.2-29.7,3.2-45.9c0-4.3-0.3-9.2-0.8-14.5c-0.5-5.3-1.2-10.6-1.9-15.9c-0.7-5.3-1.4-10.2-1.9-14.7
				C99.4,54.7,99.1,51,99.1,48.3z"/>
			<path class="st1" d="M133.9,182.5c-2.6,0-5-0.9-7-2.6c-2-1.7-3.6-3.5-4.6-5.3c-2.4-4.5-3.7-9.8-4-15.9c-0.3-6.1,0-11.7,1.1-16.7
				c0.1-1.1,0.4-2.3,0.7-3.8c0.3-1.4,0.8-2.9,1.3-4.2c0.5-1.4,1.2-2.6,2-3.6c0.8-1,1.6-1.5,2.6-1.5c2.2,0,3.6,0.6,3.9,1.7
				c0.4,1.1,0.4,2.9,0,5.2c-0.4,2.4-1,5.4-1.7,9.1c-0.7,3.7-1.1,8-1.1,13c0,1.4,0.1,3.2,0.4,5.2c0.3,2,0.7,4,1.3,5.8
				c0.6,1.8,1.4,3.4,2.4,4.6c1,1.3,2.1,1.9,3.5,1.9c1.6,0,3.4-0.6,5.3-1.7c2-1.1,3.9-2.5,5.7-4c1.8-1.6,3.5-3.2,5-4.7
				c1.5-1.6,2.7-2.8,3.5-3.8c0.3-0.3,1-1.2,2.2-2.8c1.2-1.6,2.6-3.3,4.1-5.1c1.6-1.8,3.2-3.5,4.8-4.9c1.6-1.4,2.9-2.2,3.9-2.2
				c0.9,0,1.4,0.8,1.4,2.4c0,0.9-0.6,2.3-1.9,4.2c-1.3,1.9-2.7,3.9-4.4,6c-1.7,2.1-3.4,4.1-5,5.9c-1.6,1.8-2.9,3.2-3.7,3.9
				c-1.2,1.2-2.5,2.6-4,4.1c-1.5,1.6-3.2,3.1-5,4.4c-1.8,1.4-3.8,2.6-5.8,3.6C138.4,182,136.2,182.5,133.9,182.5z M127.5,104.1
				c0-2.2,0.6-4.2,1.8-5.8c1.2-1.6,2.5-2.5,3.9-2.5c1.6,0,2.9,1,3.9,3c1.8,3.7,2.1,6.5,0.7,8.6c-1.4,2-3.1,3.1-5,3.1
				c-1.5,0-2.7-0.5-3.8-1.5C128.1,108,127.5,106.4,127.5,104.1z"/>
			<path class="st1" d="M168,171.5c-2.1,0-3.6-1.1-4.3-3.4c-0.8-2.2-1.2-5-1.1-8.4c0.1-3.4,0.5-7,1.4-11c0.9-3.9,1.9-7.6,3.2-11
				c1.2-3.4,2.6-6.2,4-8.4c1.4-2.2,2.8-3.4,3.9-3.4c2.2,0,3.3,1.1,3.1,3.2c-0.2,2.1-0.8,4.8-1.9,8.1c-1.1,3.3-2.2,6.9-3.5,11
				c-1.3,4-1.9,7.9-1.9,11.7l9.5-14.4c0.3-0.5,0.8-1.5,1.7-2.9c0.9-1.4,1.8-2.8,3-4.1c1.1-1.4,2.3-2.6,3.6-3.7
				c1.2-1.1,2.5-1.6,3.7-1.6c1.6,0,2.8,1.1,3.8,3.2l1.2,11.1c0,1.2,0.1,3,0.2,5.5c0.1,2.5,0.4,5,0.9,7.5c0.5,2.5,1.2,4.7,2.3,6.6
				c1.1,1.9,2.5,2.9,4.3,2.9c2,0,4-1.2,6.2-3.7c2.2-2.4,4.3-5.1,6.3-8.1c2-3,3.9-5.7,5.5-8.1c1.6-2.4,2.9-3.7,3.8-3.7
				c2,0,2.9,0.8,2.7,2.3c-0.2,1.5-0.8,3.3-1.9,5.2c-1.1,2-2.2,3.8-3.6,5.5c-1.3,1.7-2.1,2.8-2.4,3.2c-0.7,0.9-1.5,2-2.7,3.4
				c-1.1,1.3-2.3,2.6-3.6,3.8c-1.3,1.3-2.5,2.4-3.8,3.5c-1.3,1.1-2.5,1.7-3.7,2c-1.3,0.4-2.6,0.6-3.8,0.6c-3,0-5.4-1.1-7.2-3.4
				c-1.8-2.2-3.1-4.7-4-7.3c-0.9-3-1.5-5.8-1.9-8.2c-0.3-2.4-0.5-4.6-0.5-6.6s0-3.7,0-5.1c0-1.4-0.2-2.6-0.6-3.6
				c-1.6,1.1-3.3,3.2-5,6.4c-1.8,3.2-3.6,6.5-5.5,10c-1.9,3.4-3.8,6.5-5.7,9.2C171.9,170.1,170,171.5,168,171.5z"/>
			<path class="st1" d="M221.7,161.8c0-2.8,0.7-6.2,2.1-10.4c1.4-4.1,3.2-8.2,5.5-12c2.3-3.9,5-7.2,8.1-9.9c3.1-2.7,6.3-4,9.8-4
				c2.4,0,4.4,0.6,6.1,1.8c1.7,1.2,3,2.5,3.9,3.8c0.9,1.4,1.3,2.7,1.3,3.9c-0.1,1.2-0.8,1.8-2.1,1.8c-1.5,0-2.8-0.8-4.1-2.3
				c-1.3-1.5-2.9-2.3-4.7-2.3c-1.5,0-3.2,0.9-5.2,2.6c-2,1.7-4.5,5.1-7.4,10.1c-1.3,2.1-2.5,4.8-3.7,8.2c-1.1,3.4-1.7,6.7-1.7,10
				c0.3-0.3,0.4-0.3,0.3-0.2c-0.1,0.1,0.2-0.1,0.7-0.8l1.6-2.4c1.1-1.6,2.3-3.7,3.7-6.2c1.4-2.6,2.8-5.1,4.1-7.5
				c1.4-2.4,2.7-4.6,3.9-6.4c1.2-1.8,2.2-2.8,2.9-2.8c1.7,0,2.9,0.5,3.5,1.5c0.6,1,1,2.3,1.1,3.8c0.1,1.6,0.2,3.4,0.2,5.3
				s0.2,3.9,0.6,5.7c0.8,3.6,2,6.2,3.7,7.8c1.6,1.6,3.5,2.5,5.6,2.5c3.7,0,7.8-2.2,12.2-6.7c1.8-1.7,3.1-3.1,3.9-4.2
				c0.7-1.1,1.8-2.4,3.3-3.8c0.9-1.3,2.1-2,3.6-2c0.8,0,1.4,0.3,1.8,0.9s0.5,1.5,0.2,2.8c-0.3,1.3-1,2.8-2.3,4.6
				c-1.3,1.8-3.1,3.9-5.6,6.3l-5.9,4.7c-3.8,2.6-7.5,3.9-11.1,3.9c-2.5,0-4.7-0.6-6.7-1.8c-2-1.2-3.7-2.7-5-4.4
				c-1.4-1.8-2.5-3.8-3.3-6c-0.8-2.2-1.2-4.4-1.2-6.5c-0.9,0.7-2,2.1-3.2,4.4c-1.2,2.3-2.5,4.7-3.8,7.1c-1.4,2.4-2.8,4.6-4.2,6.6
				c-1.4,2-2.9,3-4.3,3c-3.7,0-5.9-0.9-6.7-2.6C222.1,168,221.7,165.4,221.7,161.8z"/>
		</g>
		<g class="st0">
			<path class="st2" d="M286.5,210c0-4.1,0.9-8.8,2.8-14.1c1.9-5.3,4.3-10.6,7.2-15.9c2.9-5.4,6-10.5,9.4-15.3
				c3.4-4.9,6.6-8.9,9.8-12.2c2-2.3,3.4-3.9,4.2-4.8c0.8-0.9,1.3-1.7,1.5-2.3c0.2-0.7,0.2-1.3,0.1-1.9c-0.1-0.6,0-1.6,0.1-3.1
				c0.3-2.3,0.9-4.7,1.9-7c0.9-2.4,1.9-4.6,3.1-6.5c2.3-3.8,5.4-7.4,9.1-10.8c3.8-3.4,7.8-6.4,12-9c4.2-2.6,8.4-4.7,12.5-6.3
				c4.1-1.6,7.6-2.3,10.4-2.3c4,0,5.9,1.6,5.9,4.7c0,1.6-0.4,3.1-1.2,4.2c-0.8,1.2-1.8,2.4-3,3.7l-9.6,8.7
				c-4.3,3.6-8.6,7.1-12.9,10.5c-4.3,3.4-8.5,7-12.6,10.8c-1.3,1.3-2.7,2.8-4.2,4.6c-1.5,1.7-2.9,3-4.2,3.8
				c1.6,6.9,4.2,13.4,7.7,19.4c3.5,6,7.7,11.5,12.6,16.4c0.8,0.7,1.3,1.2,1.5,1.5c0.2,0.3,0.6,0.8,1.2,1.5l14.1,13.3
				c1-0.7,3-2.4,6.2-5.3c3.1-2.9,6.4-5.9,9.9-9.1c3.5-3.2,6.6-6.1,9.4-8.7c2.8-2.6,4.4-3.8,4.9-3.8c1.5,0,2.2,0.7,2.2,2.2
				c0,1-0.4,1.8-1.1,2.5c-0.7,0.7-1.4,1.3-1.9,2l-14.3,14.8c-0.8,0.8-1.5,1.4-2,1.7c-0.5,0.3-1.2,0.9-2,1.7c-1,0.8-2.2,2-3.6,3.5
				c-1.4,1.5-2.5,2.7-3.3,3.7c0.8,0.5,2.2,1.6,4.2,3.2c2,1.6,4,3.5,6.2,5.7c2.1,2.1,4.2,4.2,6.2,6.2c2,2,3.4,3.5,4.2,4.7l4.9,5.2
				c0.2,0.2,0.9,0.8,2.1,1.9c1.2,1.1,2.4,2.2,3.5,3.5c1.1,1.2,1.8,2.4,2.1,3.5c0.3,1.1-0.2,1.6-1.7,1.6c-0.7,0-2.3-1-5.1-2.8
				c-2.7-1.9-5.6-4.1-8.8-6.5c-3.1-2.5-6.1-4.9-9-7.4c-2.9-2.5-4.9-4.3-6.1-5.4l-8.9-7.4c-3.5,3-6.2,5.5-8.3,7.7
				c-2.1,2.1-5.2,4.9-9.5,8.2c-4.8,3.5-10,6.7-15.7,9.8s-11.5,4.6-17.4,4.6c-5.3,0-10.3-1.6-15.1-4.7c-4.9-3.3-8.1-7.3-9.5-12
				C287.2,221,286.5,215.8,286.5,210z M314.2,234c3.1,0,6.3-0.6,9.6-1.7c3.3-1.2,6.5-2.6,9.6-4.4c3.1-1.8,6.1-3.8,9-5.9
				c2.9-2.1,5.4-4.1,7.5-5.9c1-0.8,2.6-2.2,4.8-4.2c2.2-2,3.7-3.4,4.3-4.2c-1-1.3-2.8-3.2-5.3-5.6c-2.6-2.4-4.5-4.3-5.8-5.8
				l-7.9-8.9c-1.5-1.5-3.2-3.6-5.2-6.4c-2-2.8-3.8-5.7-5.6-8.8c-1.7-3-3.3-6.1-4.6-9c-1.3-3-2.1-5.4-2.2-7.2
				c-3,3.5-6.1,7.4-9.5,11.9c-3.4,4.4-6.5,9.1-9.3,14.1c-2.8,4.9-5.2,9.9-7,15c-1.9,5-2.8,9.9-2.8,14.7c0,6.3,1.4,11.6,4.3,15.9
				c2.9,4.4,7.2,6.5,13,6.5H314.2z M339.4,129.2c2.8-2.6,5.8-5.3,9.1-7.9c3.3-2.6,6.4-5.1,9.4-7.4l6.9-6.2l1.2-0.7l1-1.2
				c-3.1,0.3-6.8,1.5-10.9,3.6c-4.1,2.1-8.1,4.6-11.9,7.7c-3.8,3.1-7.1,6.3-9.9,9.9c-2.8,3.5-4.4,7-4.7,10.5L339.4,129.2z"/>
		</g>
		<g class="st0">
			<path class="st1" d="M144.2,293.6c0-5.3,1.3-11.5,3.9-18.7c2.6-7.2,5.8-14.3,9.7-21.4c3.9-7.1,8.1-13.7,12.7-19.8
				c4.6-6.1,8.9-10.6,12.8-13.6c1.3-1,2.4-1.8,3.2-2.6c0.9-0.8,1.7-1.5,2.5-2.2c0.8-0.7,1.7-1.5,2.7-2.3c1-0.8,2.3-1.7,4-2.8
				c4.5-2.8,9.7-5.4,15.5-7.9c5.8-2.5,11.6-3.7,17.3-3.7c8.3,0,14.9,2.3,19.7,6.9c4.8,4.6,7.3,10.9,7.3,19c0,3.9-0.5,7.6-1.4,11.3
				c-0.9,3.7-2.1,7.2-3.6,10.6c-1.5,3.4-3.2,6.6-5,9.7c-1.8,3.1-3.7,6-5.5,8.8c-1.8,2.7-3.5,5.1-5.1,7.1c-1.6,2-3.1,4-4.7,5.7
				c-1.6,1.8-3.2,3.6-4.8,5.4c-1.7,1.8-3.5,3.9-5.6,6.1l-17.3,16c-3.2,2.9-5.8,5-7.8,6.2c-1.9,1.2-3.4,2.3-4.4,3.2
				c-1,0.9-1.6,2-1.9,3.3c-0.3,1.3-0.4,3.4-0.4,6.5c0,2-0.1,3.7-0.3,5c-0.2,1.3-0.3,3-0.3,5c1.8,1.4,3.7,2.6,5.5,3.6
				c1.8,1,3.7,2.2,5.7,3.6c10.9,8.1,21.6,16.6,32.1,25.7c10.5,9,21.6,17.7,33.3,26c1.2,0.9,1.9,1.5,2.3,1.8c0.3,0.3,0.5,1.5,0.5,3.6
				c-0.6,0.2-1.1,0.4-1.3,0.5c-0.2,0.1-0.7,0.2-1.5,0.2c-0.5,0-2.2-1-5-2.9c-2.8-1.9-6.1-4.4-10-7.3c-3.9-3-8-6.2-12.5-9.7
				c-4.5-3.5-8.7-6.9-12.7-10.2c-4-3.3-7.5-6.2-10.6-8.6c-3.1-2.5-5.1-4.1-6.2-5c-0.8-0.6-2-1.7-3.9-3.1c-1.8-1.4-3.8-2.9-5.8-4.4
				c-2-1.5-4-2.8-5.8-4c-1.8-1.1-3.2-1.8-4-2c0,1.2-0.1,1.9-0.2,2.3c-0.2,0.3-0.2,1.2-0.2,2.6c0,4.1,0,8.5-0.1,13.1
				c-0.1,4.6-0.1,9.3-0.1,14s0.1,9.3,0.2,13.8c0.1,4.5,0.3,8.7,0.6,12.6c0.1,1.3,0.3,2.6,0.6,3.9c0.3,1.3,0.4,2.5,0.5,3.6
				c0.1,1.1-0.1,2-0.5,2.7c-0.4,0.7-1.2,1-2.3,1c-2,0-3.5-1.3-4.4-4c-0.9-2.7-1.5-5.8-1.9-9.3c-0.3-3.5-0.5-6.9-0.5-10.2
				c0-3.3-0.1-5.5-0.2-6.7c-0.2-2.6-0.3-5.8-0.3-9.6c0-3.8,0-7.8,0.1-11.9c0.1-4.1,0.1-8.1,0.2-12.1c0.1-4,0.2-7.5,0.2-10.5
				c-2.2-1.1-5-2-8.6-2.7c-3.6-0.8-6.9-1.1-10-1.1c-0.9,0-1.9,0.2-3,0.5s-2.2,0.5-3.3,0.5c-1.6,0-2.6-0.8-2.9-2.3
				c-0.4-1.8,0.3-3.1,2.3-3.9c1.9-0.8,3.9-1.6,5.8-2.6c2.4-1.3,4.5-2.5,6.5-3.7c1.9-1.2,4.1-2.5,6.5-4c1.2-0.6,2.2-1.3,3-1.9
				c0.8-0.6,1.8-1.3,3-2c0.9-0.5,1.5-1,1.9-1.5c0.4-0.4,0.6-0.9,0.6-1.4c0.1-0.5,0.1-1.1,0-1.8c-0.1-0.7-0.1-1.7-0.1-3l0.6-9.7
				c0.9-10.4,2-20.8,3.6-31c1.5-10.2,3.3-20.5,5.3-30.7l4-15.8c-0.8,0.2-1.6,0.7-2.4,1.4c-0.9,0.7-1.6,1.3-2.3,1.9
				c-0.8,0.9-1.4,1.5-2,1.9c-0.6,0.4-1.3,1-2.2,1.8c-4.4,4-8.8,8.9-13.1,14.8c-4.3,5.9-8.2,12.1-11.5,18.6
				c-3.4,6.6-6.1,13.1-8.2,19.7c-2.1,6.6-3.1,12.6-3.1,18.1c0,2.6,0.2,4.3,0.5,5c0.3,0.8,0.8,1.1,1.3,1.1c0.3,0,0.7-0.1,1-0.2
				c0.4-0.2,0.7-0.2,1-0.2c0.9,0,1.5,0.3,1.9,0.9c0.4,0.6,0.5,1.2,0.2,1.9c-0.2,0.7-0.8,1.3-1.7,1.9c-0.9,0.6-2.2,0.9-3.8,0.9
				s-2.8-0.6-3.6-1.9c-0.8-1.2-1.3-2.7-1.6-4.4c-0.3-1.7-0.4-3.3-0.4-5C144.2,295.9,144.2,294.6,144.2,293.6z M179.6,331.3
				c0-1.5,0-3.1-0.1-4.8c-0.1-1.7,0.2-3.1,0.7-4c-0.4,0-1.2,0.3-2.3,0.9c-1.1,0.6-2.3,1.2-3.5,1.9c-1.2,0.7-2.2,1.4-3.1,2
				c-0.9,0.6-1.5,1.1-1.7,1.3c0.6,0.2,1.5,0.4,2.4,0.6c1,0.2,1.9,0.4,2.9,0.6c0.9,0.2,1.7,0.5,2.6,0.7
				C178.3,330.8,179,331,179.6,331.3z M189.1,306.1c3.7-2.6,7.5-5.7,11.5-9.2c4-3.6,8-7.3,11.8-11.4c3.8-4,7.4-8.1,10.8-12.2
				c3.4-4.1,6.3-8,8.8-11.6c4-5.8,7.6-11.9,10.8-18.4s4.8-13.5,4.8-21.2c0-4.6-1.6-8.6-4.9-11.9c-3.3-3.3-7.2-4.9-11.9-4.9
				c-5.2,0-9.5,0.4-13,1.3c-3.5,0.9-7.5,2.4-12,4.7c-1.6,0.8-2.4,1.3-2.5,1.8c-0.1,0.4-0.2,1.6-0.6,3.6c-0.4,2.5-0.9,4.9-1.5,7.3
				c-0.5,2.4-1.1,4.8-1.6,7.3c-0.4,2.4-0.9,4.7-1.3,6.9c-0.4,2.3-0.9,4.6-1.5,7.1c-1,4.7-1.8,9.6-2.5,14.7c-0.7,5.1-1.3,10.1-1.9,15
				c-0.2,1.6-0.5,3.9-0.9,6.9c-0.4,3-0.8,6-1.2,9.2c-0.4,3.2-0.8,6.2-1,9C189.2,302.7,189.1,304.8,189.1,306.1z"/>
			<path class="st1" d="M236.4,317.9c0-1.8,0.5-4.6,1.4-8.4c0.9-3.8,2.2-7.5,3.7-11.3c1.6-3.8,3.3-7.1,5.2-9.9
				c1.9-2.9,3.9-4.3,5.8-4.3c1.1,0,1.8,0.5,2.3,1.5c0.4,1,0.5,1.8,0.3,2.4c-0.2,0.5-0.6,1.1-1.2,1.6c-0.6,0.5-1.1,1.1-1.5,1.8
				c0.2,0.8,0.8,1.6,1.6,2.4c0.9,0.9,1.7,2.1,2.5,3.7c0.8,1.6,1.4,3.7,1.7,6.2c0.3,2.5,0.1,5.9-0.8,10.1c-1.2,5.6-3.1,9.8-5.7,12.6
				c-2.6,2.8-5.1,4.2-7.6,4.2c-2.2,0-4-1-5.5-3.1C237.2,325.2,236.4,322.1,236.4,317.9z M244.5,323.3c1.6-0.4,3.1-1.9,4.4-4.4
				c1.3-2.5,2.2-5.2,2.7-8.2c0.5-3,0.7-5.9,0.4-8.6c-0.3-2.7-1.1-4.5-2.5-5.5c-0.3,1.2-0.9,2.9-1.8,5.1c-0.9,2.2-1.7,4.6-2.5,7.2
				c-0.8,2.6-1.3,5.2-1.6,7.8C243.3,319.3,243.6,321.5,244.5,323.3z"/>
			<path class="st1" d="M269.3,318.7c-1.7,0-2.9-0.9-3.6-2.7c-0.6-1.8-0.9-4.1-0.9-6.9c0.1-2.7,0.4-5.7,1.1-9c0.7-3.2,1.6-6.2,2.6-9
				c1-2.7,2.1-5,3.3-6.9c1.2-1.8,2.3-2.7,3.2-2.7c1.8,0,2.7,0.9,2.5,2.6c-0.2,1.7-0.7,3.9-1.5,6.6c-0.9,2.7-1.8,5.7-2.8,9
				c-1,3.3-1.5,6.5-1.5,9.6l7.8-11.8c0.2-0.4,0.7-1.2,1.4-2.3c0.7-1.1,1.5-2.3,2.4-3.4c0.9-1.1,1.9-2.1,2.9-3c1-0.9,2-1.3,3-1.3
				c1.3,0,2.3,0.9,3.1,2.6l1,9c0,1,0.1,2.5,0.2,4.5c0.1,2,0.3,4.1,0.7,6.1c0.4,2,1,3.9,1.9,5.4c0.9,1.6,2,2.3,3.6,2.3
				c1.6,0,3.3-1,5.1-3c1.8-2,3.5-4.2,5.2-6.6c1.7-2.4,3.2-4.6,4.5-6.6c1.3-2,2.4-3,3.1-3c1.6,0,2.3,0.6,2.2,1.9
				c-0.2,1.2-0.7,2.7-1.5,4.3c-0.9,1.6-1.8,3.1-2.9,4.5c-1.1,1.4-1.7,2.3-1.9,2.6c-0.5,0.8-1.3,1.7-2.2,2.7
				c-0.9,1.1-1.9,2.1-2.9,3.1c-1,1-2,2-3.1,2.8c-1,0.9-2,1.4-3,1.6c-1.1,0.3-2.1,0.5-3.1,0.5c-2.5,0-4.4-0.9-5.9-2.7
				c-1.5-1.8-2.6-3.8-3.3-6c-0.8-2.5-1.3-4.7-1.5-6.7c-0.3-2-0.4-3.8-0.4-5.4c0-1.6,0-3,0-4.2c0-1.2-0.2-2.2-0.5-2.9
				c-1.3,0.9-2.7,2.6-4.1,5.2c-1.5,2.6-3,5.4-4.5,8.2c-1.6,2.8-3.1,5.3-4.7,7.5C272.5,317.6,271,318.7,269.3,318.7z"/>
			<path class="st1" d="M317.8,318.7c-1.7,0-2.9-0.9-3.6-2.7c-0.6-1.8-0.9-4.1-0.9-6.9c0.1-2.7,0.4-5.7,1.1-9c0.7-3.2,1.6-6.2,2.6-9
				c1-2.7,2.1-5,3.3-6.9c1.2-1.8,2.3-2.7,3.2-2.7c1.8,0,2.7,0.9,2.5,2.6c-0.2,1.7-0.7,3.9-1.5,6.6c-0.9,2.7-1.8,5.7-2.8,9
				c-1,3.3-1.5,6.5-1.5,9.6l7.8-11.8c0.2-0.4,0.7-1.2,1.4-2.3c0.7-1.1,1.5-2.3,2.4-3.4c0.9-1.1,1.9-2.1,2.9-3c1-0.9,2-1.3,3-1.3
				c1.3,0,2.3,0.9,3.1,2.6l1,9c0,1,0.1,2.5,0.2,4.5c0.1,2,0.3,4.1,0.7,6.1c0.4,2,1,3.9,1.9,5.4c0.9,1.6,2,2.3,3.6,2.3
				c1.6,0,3.3-1,5.1-3c1.8-2,3.5-4.2,5.2-6.6c1.7-2.4,3.2-4.6,4.5-6.6c1.3-2,2.4-3,3.1-3c1.6,0,2.3,0.6,2.2,1.9
				c-0.2,1.2-0.7,2.7-1.5,4.3c-0.9,1.6-1.8,3.1-2.9,4.5c-1.1,1.4-1.7,2.3-1.9,2.6c-0.5,0.8-1.3,1.7-2.2,2.7
				c-0.9,1.1-1.9,2.1-2.9,3.1c-1,1-2,2-3.1,2.8c-1,0.9-2,1.4-3,1.6c-1.1,0.3-2.1,0.5-3.1,0.5c-2.5,0-4.4-0.9-5.9-2.7
				c-1.5-1.8-2.6-3.8-3.3-6c-0.8-2.5-1.3-4.7-1.5-6.7c-0.3-2-0.4-3.8-0.4-5.4c0-1.6,0-3,0-4.2c0-1.2-0.2-2.2-0.5-2.9
				c-1.3,0.9-2.7,2.6-4.1,5.2c-1.5,2.6-3,5.4-4.5,8.2c-1.6,2.8-3.1,5.3-4.7,7.5C321,317.6,319.4,318.7,317.8,318.7z"/>
			<path class="st1" d="M375.1,327.7c-2.2,0-4.1-0.7-5.7-2.1c-1.7-1.4-2.9-2.9-3.8-4.4c-1.9-3.7-3-8-3.3-13c-0.3-5,0-9.6,0.9-13.6
				c0.1-0.9,0.3-1.9,0.6-3.1c0.3-1.2,0.6-2.3,1-3.5c0.4-1.1,1-2.1,1.6-2.9c0.6-0.8,1.3-1.2,2.1-1.2c1.8,0,2.9,0.5,3.2,1.4
				c0.3,0.9,0.3,2.3,0,4.3c-0.3,1.9-0.8,4.4-1.4,7.4c-0.6,3-0.9,6.6-0.9,10.7c0,1.2,0.1,2.6,0.3,4.3c0.2,1.7,0.6,3.3,1,4.8
				c0.5,1.5,1.1,2.8,1.9,3.8c0.8,1,1.7,1.5,2.8,1.5c1.3,0,2.7-0.5,4.4-1.4c1.6-0.9,3.2-2,4.7-3.3c1.5-1.3,2.9-2.6,4.1-3.9
				c1.2-1.3,2.2-2.3,2.8-3.1c0.2-0.2,0.8-1,1.8-2.3c1-1.3,2.1-2.7,3.4-4.2c1.3-1.5,2.6-2.9,4-4c1.3-1.2,2.4-1.8,3.1-1.8
				c0.8,0,1.1,0.6,1.1,1.9c0,0.8-0.5,1.9-1.5,3.5c-1,1.6-2.2,3.2-3.6,4.9c-1.4,1.7-2.8,3.3-4.1,4.8c-1.3,1.5-2.3,2.6-3,3.2
				c-1,1-2.1,2.1-3.3,3.4c-1.2,1.3-2.6,2.5-4.1,3.6c-1.5,1.1-3.1,2.1-4.8,2.9C378.8,327.3,377,327.7,375.1,327.7z M369.9,263.6
				c0-1.8,0.5-3.4,1.5-4.8c1-1.3,2-2,3.2-2c1.3,0,2.4,0.8,3.2,2.4c1.5,3,1.7,5.4,0.6,7c-1.1,1.7-2.5,2.5-4.1,2.5
				c-1.2,0-2.2-0.4-3.1-1.2C370.4,266.8,369.9,265.4,369.9,263.6z"/>
			<path class="st1" d="M398.7,301.7c0-2,0.5-4.2,1.6-6.5c1.1-2.3,2.4-4.5,4-6.5c1.6-2,3.4-3.7,5.5-5c2-1.3,4-2,6-2
				c3.6,0,5.4,1.3,5.6,4c0.2,2.7-1,5.6-3.5,8.7c-1.3,1.5-3.2,3.1-5.8,4.9c-2.6,1.8-5.1,2.8-7.6,3c0,1.7,0.1,3.3,0.2,4.6
				c0.1,1.3,0.9,2.7,2.3,4.1c1.4,1.4,3.2,2.1,5.3,2.1c1.4,0,2.9-0.3,4.4-0.8c1.5-0.5,3-1.2,4.4-1.9c1.4-0.7,2.7-1.5,4-2.3
				c1.2-0.8,2.2-1.5,3-2.2c0.6-0.5,1.2-1,1.5-1.3c0.4-0.3,0.8-0.7,1.4-1.1c1.6-1.3,2.8-2.3,3.5-3.1c0.7-0.8,1.2-1.3,1.6-1.8
				c0.4-0.4,0.8-0.7,1.3-0.8c0.5-0.1,1.3-0.2,2.5-0.2c0.2,1.2,0.3,2,0.2,2.4c-0.1,0.4-0.5,1.1-1.2,1.9c-1.5,1.5-3.3,3.2-5.3,5
				c-2,1.8-4.3,3.6-6.7,5.2c-2.4,1.6-4.9,3-7.4,4c-2.5,1.1-5,1.6-7.5,1.6c-3.7,0-6.8-1.3-9.4-3.9c-1.9-1.9-3-3.9-3.3-6
				C398.8,306.1,398.7,304,398.7,301.7z M405.9,297.8c1-0.5,2.1-1.2,3.3-1.9c1.2-0.8,2.4-1.6,3.5-2.5c1.1-0.9,2-1.9,2.7-3.1
				c0.8-1.1,1.2-2.3,1.3-3.6c-1.1,0.2-2.2,0.7-3.4,1.5c-1.2,0.8-2.3,1.8-3.2,2.8c-1,1.1-1.8,2.2-2.6,3.5
				C406.8,295.8,406.3,296.9,405.9,297.8z"/>
		</g>
		<path class="st1" d="M168.6,124.1c3.5-4.1,9.3-3.4,13.6-1.3c3,1.5,5.5,4.3,8.8,5.1c4.8,1.2,8.2-2.3,10.8-5.7
			c2-2.6-1.7-3.9-3.4-1.7c-4.4,5.6-7.8,1.4-12-1c-2.7-1.6-5.7-2.6-8.8-2.8c-4.8-0.3-9.5,1.9-12.5,5.7
			C163,124.9,166.8,126.3,168.6,124.1L168.6,124.1z"/>
	</g>
</g>
</svg>
