<svg xmlns="http://www.w3.org/2000/svg" viewBox="0 0 208.85 120.63"><defs><style>.cls-1{font-size:112.95px;fill:#a95b26;font-family:Rusillaserif-Regular, Rusilla serif;letter-spacing:0.01em;}.cls-2{letter-spacing:0.03em;}.cls-3{letter-spacing:0.05em;}.cls-4{fill:#e7862b;}.cls-5{fill:none;stroke:#e7862b;stroke-miterlimit:10;stroke-width:0.4px;}</style></defs><g id="Layer_2" data-name="Layer 2"><g id="Layer_1-2" data-name="Layer 1"><text class="cls-1" transform="translate(0 96.01)">r<tspan class="cls-2" x="53.54" y="0">s</tspan><tspan class="cls-3" x="102.56" y="0">vp</tspan></text><path class="cls-4" d="M2.27,30.74c-.34,0-.52-.15-.52-.46a18.45,18.45,0,0,1,1.6-6.82,52.91,52.91,0,0,1,4.07-7.94,61.28,61.28,0,0,1,5.33-7.39q4.29-5,7.43-5.3a1.38,1.38,0,0,1,1.21.53,2,2,0,0,1,.39,1.23c0,2.32-2.09,5.7-6.26,10.11a58.57,58.57,0,0,1-11.2,9.39C4,25,3.71,25.6,3.59,26A4.56,4.56,0,0,0,4,25.44,3.7,3.7,0,0,1,6.7,23.76c.65,0,1,.26,1,.8a2.51,2.51,0,0,1-1.35,2,6.2,6.2,0,0,1-2.48,1.09,12.45,12.45,0,0,0,6,1.45,17.77,17.77,0,0,0,4.81-.7A45.14,45.14,0,0,0,23,25.1c1.48-.81,2.25-1.21,2.3-1.21s.29.13.29.41l-1,.49a49.08,49.08,0,0,1-5.08,2.51,24.88,24.88,0,0,1-9.67,2.36A12.66,12.66,0,0,1,3,28.05a9.87,9.87,0,0,0-.26,2.23A.41.41,0,0,1,2.27,30.74ZM3.41,27.2a5,5,0,0,0,1.4-.53,6.46,6.46,0,0,0,1.5-1.05,1.63,1.63,0,0,0,.62-1c0-.21-.08-.31-.23-.31-.64,0-1.39.53-2.25,1.58A8.59,8.59,0,0,0,3.41,27.2Zm1.24-3.93A53.51,53.51,0,0,0,12.54,17a47.09,47.09,0,0,0,7-8.15,8.36,8.36,0,0,0,1.71-4.21c0-.81-.35-1.22-1-1.22q-1.61,0-4.55,3.16a59,59,0,0,0-6,7.8A62.68,62.68,0,0,0,4.65,23.27Z"/><path class="cls-4" d="M27.52,28.8c-2.15,0-3.25-.84-3.28-2.53a4.71,4.71,0,0,1,1-2.95.61.61,0,0,1,.57-.29,1,1,0,0,1,.49.12.35.35,0,0,1,.21.32l0,.13a5,5,0,0,0-.85,2.74,2,2,0,0,0,.45,1.3,1.93,1.93,0,0,0,1.39.65,13.72,13.72,0,0,0,3.76-.66c1.46-.44,2.89-.95,4.28-1.52s2.57-1.08,3.52-1.52l1.48-.68c.2,0,.31.09.31.26a.53.53,0,0,1,0,.16c0,.05-.06.07-.09.07s-.55.28-1.49.72-2.1.94-3.48,1.51Q30.4,28.81,27.52,28.8Zm-.93-6.72c-.4,0-.59-.31-.59-.94,0-.82.27-1.3.82-1.42a.9.9,0,0,1,.68.32,1,1,0,0,1,.28.69,1.38,1.38,0,0,1-.39.91A1.08,1.08,0,0,1,26.59,22.08Z"/><path class="cls-4" d="M39,29c-.29,0-.44-.17-.44-.52a8.34,8.34,0,0,1,.51-2.17,20.06,20.06,0,0,1,1.07-2.72,1,1,0,0,1,.75-.52c.48,0,.72.18.72.52v0a.65.65,0,0,1-.1.31,25.17,25.17,0,0,0-1.71,3.62,25.89,25.89,0,0,1,2.72-2.41,4.7,4.7,0,0,1,2.53-1.21,2.54,2.54,0,0,1,1.36.31,2.18,2.18,0,0,1,.78.79c.18.32.35.64.5,1a3.67,3.67,0,0,0,.56,1.1,1.3,1.3,0,0,0,1.1.45,28,28,0,0,0,7.71-1.78l4.71-1.84h0l.06-.05a.71.71,0,0,1,.23.14.33.33,0,0,1,0,.19v.08s0,.08-.08.13L60.64,25q-7.78,3.11-11.28,3.1c-1.38,0-2.29-.29-2.74-.88a5,5,0,0,1-.83-1.78,4.09,4.09,0,0,0-.26-.7c-.05-.17-.21-.26-.47-.26a4.7,4.7,0,0,0-2.53,1.36,34.77,34.77,0,0,0-3.13,3l0,.05-.13.09A.32.32,0,0,1,39,29Z"/><path class="cls-4" d="M70.68,29.63q-4.56,0-5.23-4.29a28.29,28.29,0,0,1-2.73,2.75A3.28,3.28,0,0,1,60.8,29c-.87,0-1.37-.55-1.51-1.63a3.75,3.75,0,0,1,.52-1.79A5.15,5.15,0,0,1,61.2,24a3,3,0,0,1,1.87-.66,1.15,1.15,0,0,1,.92.35,1.16,1.16,0,0,1,.3.79c0,.19-.09.28-.26.28a.31.31,0,0,1-.26-.18.5.5,0,0,0-.54-.34,2.53,2.53,0,0,0-2,1.18,3.83,3.83,0,0,0-.87,2.24c0,.54.13.8.41.8.64,0,1.81-.89,3.52-2.69a10.61,10.61,0,0,0,1-1.14,15.87,15.87,0,0,1-.18-2.48,17.27,17.27,0,0,1,.79-5,31.19,31.19,0,0,1,2-5.1,32,32,0,0,1,2.66-4.34q2.18-2.92,4-3.08a1.62,1.62,0,0,1,1.26.52,2.25,2.25,0,0,1,.48,1.58c0,1.27-.68,3.13-2,5.56a71.64,71.64,0,0,1-8.07,12c.24,3,1.69,4.63,4.37,4.76a10,10,0,0,0,5.66-2A27.21,27.21,0,0,0,80.56,24a.31.31,0,0,1,.13,0c.23,0,.34.08.34.26a.27.27,0,0,1-.11.2,37.11,37.11,0,0,1-4.27,3.13A10.62,10.62,0,0,1,70.68,29.63Zm-4.45-6.05A75.11,75.11,0,0,0,72.9,14q2.92-5,2.93-7.21,0-1.56-1.17-1.56T72.11,7.06a26.16,26.16,0,0,0-2.79,4.59,37.5,37.5,0,0,0-2.25,5.7,17.84,17.84,0,0,0-.89,5.14Z"/><path class="cls-4" d="M82.58,34.08q-3.36-.21-3.36-3.78a26.7,26.7,0,0,1,2.45-10.09A45,45,0,0,1,87.73,9.86q3.61-4.47,7.32-4.73c1.69,0,2.55.89,2.59,2.66A9,9,0,0,1,96.05,12a32.29,32.29,0,0,1-4,5,27.41,27.41,0,0,1-10.61,7.32,20.18,20.18,0,0,0-1.11,6,4.42,4.42,0,0,0,.56,2.56,1.9,1.9,0,0,0,1.64.75q3.83-.39,8.82-3.7a49.2,49.2,0,0,0,7.63-6l.11-.08c.22,0,.33.1.33.31l0,.15a56.15,56.15,0,0,1-7.74,6Q86.67,33.69,82.58,34.08ZM81.7,23.65a27.15,27.15,0,0,0,10-7.06,30.85,30.85,0,0,0,3.92-5,8.08,8.08,0,0,0,1.49-3.83c0-1.41-.72-2.12-2.07-2.12q-3.49.39-7.37,6.06A49,49,0,0,0,81.7,23.65Z"/><path class="cls-4" d="M105,34.26a35.5,35.5,0,0,1-3.86,7.38C99.65,43.84,98,45,96.32,45A1.94,1.94,0,0,1,95,44.47,1.83,1.83,0,0,1,94.46,43q0-2.46,3.28-4.82a45.22,45.22,0,0,1,6.16-3.93,25.19,25.19,0,0,0,2.33-9.16c0-.43,0-.64-.16-.64a9.16,9.16,0,0,0-2.46,2,13.68,13.68,0,0,1-1.55,1.28,3.36,3.36,0,0,1-2,.74c-1.25,0-1.88-.53-1.89-1.6A8.29,8.29,0,0,1,99,23.29c.06-.19.23-.28.52-.28s.61.13.62.39a2.71,2.71,0,0,1-.23.77,5.44,5.44,0,0,0-.54,2.69c0,.62.23,1,.7,1.06a3.4,3.4,0,0,0,2.26-1.1c.78-.73,1.25-1.17,1.41-1.3.34-.33.74-.68,1.18-1a1.91,1.91,0,0,1,1.1-.54,1.11,1.11,0,0,1,.81.44,1.8,1.8,0,0,1,.35,1.19,26.91,26.91,0,0,1-1.86,7.92s1.85-1,5.46-2.77a27.23,27.23,0,0,1,13.57-2.32.59.59,0,0,0,.14,0l.1,0c.17,0,.17,0,.17.17a.23.23,0,0,1,0,.11.3.3,0,0,1-.07.1c-4.33-.11-9,.09-13.65,2.35-1.16.58-2.2,1.12-3.13,1.6Zm-8.7,10.17a3.54,3.54,0,0,0,2.37-1.29,18.93,18.93,0,0,0,2.58-3.48,37.24,37.24,0,0,0,2.3-4.6Q95,39.67,95,43a1.43,1.43,0,0,0,.37,1.07A1.32,1.32,0,0,0,96.34,44.43Z"/><path class="cls-5" d="M124.47,28.6S163,31.37,167.15,27"/></g></g></svg>