<?xml version="1.0" encoding="utf-8"?>
<!-- Generator: Adobe Illustrator 24.1.0, SVG Export Plug-In . SVG Version: 6.00 Build 0)  -->
<svg version="1.1" id="Layer_1" xmlns="http://www.w3.org/2000/svg" xmlns:xlink="http://www.w3.org/1999/xlink" x="0px" y="0px"
	 viewBox="0 0 208.9 120.6" style="enable-background:new 0 0 208.9 120.6;" xml:space="preserve">
<style type="text/css">
	.st0{enable-background:new    ;}
	.st1{fill:#A95B26;}
	.st2{fill:#E7862B;}
	.st3{fill:none;stroke:#E7862B;stroke-width:0.4;stroke-miterlimit:10;}
</style>
<g id="Layer_2_1_">
	<g id="Layer_1-2">
		<g class="st0">
			<path class="st1" d="M2.3,96v-0.3c3.8,0,5.4-2.4,5.4-8.4V48.2c0-6-1.6-8.4-5.4-8.4v-0.3h20.1c11.1,0,17.6,5.6,17.6,15
				c0,7.1-4,13-11.6,14.9c1.6,0.3,2.8,0.9,3.7,1.7c7.8,6.9,1.6,24.5,16.2,24.5h1.9V96h-2.9c-10.1,0-13.7-1.8-15.4-7.8l-2.9-12.4
				c-0.9-4.1-2.9-5.6-7.2-5.6h-7.1v17.2c0,6,1.6,8.4,5.4,8.4V96H2.3z M14.6,40.8V69h7.1c8,0,12.1-6.3,12.1-14.5
				c0-8.7-4.5-13.8-12.1-13.8H14.6z"/>
		</g>
		<g class="st0">
			<path class="st1" d="M79.9,65.1c11.3,3.5,17.6,8.7,17.6,16.7c0,9.7-9.4,15.4-20.1,15.4c-8.1,0-15.5-3.3-19-8.2
				c-0.7-0.9-1-1.1-1.2-1.1c-0.8,0-0.8,2.1-0.8,2.8h-0.9V77h0.9c0,11.1,9.3,19,21.3,19c7.7,0,13.7-3.2,13.7-9.8
				c0-6.9-6.2-11.6-17.1-15c-13.1-4-18.5-9.7-18.5-17.3c0-9.1,7.8-15.5,18.7-15.5c6.9,0,12,2.5,16.4,6.8c0.9,0.9,1.4,1.2,1.7,1.2
				c0.6,0,0.8-1,0.8-2.8h1.1v11.5h-1.1c0-9.6-9.3-15.6-18.7-15.6c-7.6,0-12.8,3.8-12.8,9.8C61.9,58.9,74.7,63.5,79.9,65.1z"/>
		</g>
		<g class="st0">
			<path class="st1" d="M108.7,45.3c-1.4-3.6-3.3-5.4-5.5-5.4v-0.3H122v0.3c-5.5,0-7.3,1.9-5.8,6.1l15.9,43.1l15.4-40.9
				c2.4-6.2,1-8.4-5-8.4v-0.3h12.8v0.3c-2.3,0-4.3,1.9-5.5,5.3l-19.1,50.9h-2.8L108.7,45.3z"/>
			<path class="st1" d="M163.8,96v-0.3c3.8,0,5.4-2.4,5.4-8.4V48.2c0-6-1.6-8.4-5.4-8.4v-0.3h20.1c11.9,0,17.6,4.9,17.6,15
				c0,10.3-6,15.6-17.6,15.6h-7.8v17.2c0,6,1.6,8.4,5.4,8.4V96H163.8z M176.1,40.8V69h7.1c8,0,12.1-4.9,12.1-14.5
				c0-9.4-3.8-13.8-12.1-13.8H176.1z"/>
		</g>
		<path class="st2" d="M2.3,30.7c-0.3,0-0.5-0.1-0.5-0.5c0.1-2.4,0.6-4.7,1.6-6.8c1.1-2.8,2.5-5.4,4.1-7.9c1.6-2.6,3.4-5.1,5.3-7.4
			c2.9-3.3,5.3-5.1,7.4-5.3c0.5,0,0.9,0.2,1.2,0.5c0.3,0.4,0.4,0.8,0.4,1.2c0,2.3-2.1,5.7-6.3,10.1c-3.3,3.6-7.1,6.7-11.2,9.4
			C4,25,3.7,25.6,3.6,26c0.2-0.2,0.3-0.4,0.4-0.6c0.6-0.9,1.6-1.6,2.7-1.7c0.7,0,1,0.3,1,0.8c-0.1,0.9-0.6,1.6-1.3,2
			c-0.7,0.5-1.6,0.9-2.5,1.1c1.8,1,3.9,1.5,6,1.5c1.6,0,3.2-0.2,4.8-0.7c2.9-0.8,5.7-1.9,8.3-3.3c1.5-0.8,2.2-1.2,2.3-1.2
			s0.3,0.1,0.3,0.4l-1,0.5c-1.6,0.9-3.3,1.8-5.1,2.5c-3,1.4-6.3,2.2-9.7,2.4C7.5,29.8,5.1,29.2,3,28c-0.2,0.7-0.3,1.5-0.3,2.2
			c0,0.2-0.1,0.4-0.4,0.5C2.3,30.7,2.3,30.7,2.3,30.7z M3.4,27.2c0.5-0.1,1-0.3,1.4-0.5c0.5-0.3,1.1-0.6,1.5-1
			c0.3-0.2,0.5-0.6,0.6-1c0-0.2-0.1-0.3-0.2-0.3c-0.6,0-1.4,0.5-2.2,1.6C4.1,26.3,3.7,26.7,3.4,27.2z M4.7,23.3
			c2.8-1.8,5.5-3.9,7.9-6.3c2.6-2.4,5-5.2,7-8.1c0.9-1.2,1.5-2.7,1.7-4.2c0-0.8-0.4-1.2-1-1.2c-1.1,0-2.6,1.1-4.6,3.2
			c-2.2,2.4-4.2,5-6,7.8C7.8,17.2,6.1,20.2,4.7,23.3z"/>
		<path class="st2" d="M27.5,28.8c-2.1,0-3.2-0.8-3.3-2.5c0-1.1,0.3-2.1,1-3c0.1-0.2,0.3-0.3,0.6-0.3c0.2,0,0.3,0,0.5,0.1
			c0.1,0.1,0.2,0.2,0.2,0.3v0.1c-0.5,0.8-0.8,1.8-0.9,2.7c0,0.5,0.2,0.9,0.5,1.3c0.4,0.4,0.9,0.6,1.4,0.6c1.3,0,2.5-0.3,3.8-0.7
			c1.5-0.4,2.9-1,4.3-1.5s2.6-1.1,3.5-1.5l1.5-0.7c0.2,0,0.3,0.1,0.3,0.3c0,0.1,0,0.1,0,0.2c0,0-0.1,0.1-0.1,0.1s-0.5,0.3-1.5,0.7
			s-2.1,0.9-3.5,1.5C32.2,28.1,29.4,28.8,27.5,28.8z M26.6,22.1c-0.4,0-0.6-0.3-0.6-0.9c0-0.8,0.3-1.3,0.8-1.4
			c0.3,0,0.5,0.1,0.7,0.3c0.2,0.2,0.3,0.4,0.3,0.7c0,0.3-0.2,0.7-0.4,0.9C27.2,21.9,26.9,22.1,26.6,22.1z"/>
		<path class="st2" d="M39,29c-0.3,0-0.4-0.2-0.4-0.5c0.1-0.7,0.2-1.5,0.5-2.2c0.3-0.9,0.6-1.8,1.1-2.7c0.2-0.3,0.4-0.5,0.8-0.5
			c0.5,0,0.7,0.2,0.7,0.5l0,0c0,0.1,0,0.2-0.1,0.3c-0.7,1.2-1.2,2.4-1.7,3.6c0.8-0.9,1.8-1.7,2.7-2.4c0.7-0.7,1.6-1.1,2.5-1.2
			c0.5,0,0.9,0.1,1.4,0.3c0.3,0.2,0.6,0.5,0.8,0.8c0.2,0.3,0.3,0.6,0.5,1c0.1,0.4,0.3,0.8,0.6,1.1c0.3,0.3,0.7,0.5,1.1,0.5
			c2.6-0.2,5.2-0.8,7.7-1.8l4.7-1.8l0,0l0.1,0c0.1,0,0.2,0.1,0.2,0.1c0,0.1,0,0.1,0,0.2v0.1c0,0,0,0.1-0.1,0.1L60.6,25
			c-5.2,2.1-8.9,3.1-11.3,3.1c-1.4,0-2.3-0.3-2.7-0.9c-0.4-0.5-0.7-1.1-0.8-1.8c-0.1-0.2-0.2-0.5-0.3-0.7c0-0.2-0.2-0.3-0.5-0.3
			c-1,0.2-1.8,0.7-2.5,1.4c-1.1,0.9-2.2,1.9-3.1,3v0L39.3,29C39.2,29,39.1,29,39,29z"/>
		<path class="st2" d="M70.7,29.6c-3,0-4.8-1.4-5.2-4.3c-0.8,1-1.8,1.9-2.7,2.8c-0.5,0.5-1.2,0.8-1.9,0.9c-0.9,0-1.4-0.5-1.5-1.6
			c0-0.6,0.2-1.2,0.5-1.8c0.3-0.6,0.8-1.2,1.4-1.6c0.5-0.4,1.2-0.7,1.9-0.7c0.3,0,0.7,0.1,0.9,0.4c0.2,0.2,0.3,0.5,0.3,0.8
			c0,0.2-0.1,0.3-0.3,0.3c-0.1,0-0.2-0.1-0.3-0.2c-0.1-0.2-0.3-0.4-0.5-0.3c-0.8,0-1.6,0.5-2,1.2c-0.5,0.6-0.8,1.4-0.9,2.2
			c0,0.5,0.1,0.8,0.4,0.8c0.6,0,1.8-0.9,3.5-2.7c0.4-0.4,0.7-0.7,1-1.1c-0.1-0.8-0.2-1.6-0.2-2.5c0-1.7,0.3-3.4,0.8-5
			c0.5-1.8,1.2-3.5,2-5.1c0.8-1.5,1.7-3,2.7-4.3c1.5-1.9,2.8-3,4-3.1c0.5,0,0.9,0.2,1.3,0.5c0.4,0.4,0.5,1,0.5,1.6
			c0,1.3-0.7,3.1-2,5.6c-2.3,4.3-5,8.3-8.1,12c0.2,3,1.7,4.6,4.4,4.8c2-0.1,4-0.8,5.7-2c1.5-0.9,3-1.9,4.3-3.1c0,0,0.1,0,0.1,0
			c0.2,0,0.3,0.1,0.3,0.3c0,0.1,0,0.2-0.1,0.2c-1.3,1.1-2.8,2.2-4.3,3.1C74.9,28.9,72.8,29.6,70.7,29.6z M66.2,23.6
			c2.5-3,4.7-6.2,6.7-9.6c1.9-3.3,2.9-5.7,2.9-7.2c0-1-0.4-1.6-1.2-1.6S73,5.8,72.1,7.1c-1.1,1.4-2,3-2.8,4.6
			c-0.9,1.8-1.7,3.7-2.2,5.7c-0.5,1.7-0.8,3.4-0.9,5.1L66.2,23.6z"/>
		<path class="st2" d="M82.6,34.1c-2.2-0.1-3.4-1.4-3.4-3.8c0.1-3.5,1-6.9,2.4-10.1c1.5-3.7,3.6-7.2,6.1-10.4c2.4-3,4.8-4.6,7.3-4.7
			c1.7,0,2.6,0.9,2.6,2.7c-0.2,1.5-0.7,3-1.6,4.2c-1.2,1.8-2.5,3.5-4,5c-2.9,3.2-6.5,5.8-10.6,7.3c-0.7,1.9-1,4-1.1,6
			c-0.1,0.9,0.1,1.8,0.6,2.6c0.4,0.5,1,0.8,1.6,0.8c2.6-0.3,5.5-1.5,8.8-3.7c2.7-1.7,5.3-3.8,7.6-6l0.1-0.1c0.2,0,0.3,0.1,0.3,0.3
			v0.1c-2.4,2.2-5,4.2-7.7,6C88.3,32.6,85.3,33.8,82.6,34.1z M81.7,23.6c3.8-1.6,7.2-4,10-7.1c1.5-1.5,2.8-3.2,3.9-5
			c0.8-1.1,1.3-2.4,1.5-3.8c0-1.4-0.7-2.1-2.1-2.1c-2.3,0.3-4.8,2.3-7.4,6.1C85.1,15.4,83.1,19.4,81.7,23.6z"/>
		<path class="st2" d="M105,34.3c-1,2.6-2.3,5.1-3.9,7.4C99.7,43.8,98,45,96.3,45c-0.5,0-1-0.2-1.3-0.5c-0.4-0.4-0.6-0.9-0.5-1.5
			c0-1.6,1.1-3.2,3.3-4.8c1.9-1.5,4-2.8,6.2-3.9c1.3-2.9,2.1-6,2.3-9.2c0-0.4,0-0.6-0.2-0.6c-0.9,0.5-1.8,1.2-2.5,2
			c-0.5,0.5-1,0.9-1.6,1.3c-0.6,0.5-1.3,0.7-2,0.7c-1.2,0-1.9-0.5-1.9-1.6c0-1.2,0.3-2.5,0.8-3.6c0.1-0.2,0.2-0.3,0.5-0.3
			s0.6,0.1,0.6,0.4c0,0.3-0.1,0.5-0.2,0.8c-0.4,0.8-0.6,1.8-0.5,2.7c0,0.6,0.2,1,0.7,1.1c0.9-0.1,1.7-0.5,2.3-1.1
			c0.8-0.7,1.2-1.2,1.4-1.3c0.3-0.3,0.7-0.7,1.2-1c0.3-0.3,0.7-0.5,1.1-0.5c0.3,0,0.6,0.2,0.8,0.4c0.3,0.3,0.4,0.8,0.3,1.2
			c-0.2,2.7-0.8,5.4-1.9,7.9c0,0,1.8-1,5.5-2.8c4.2-1.9,8.9-2.7,13.6-2.3c0,0,0.1,0,0.1,0h0.1c0.2,0,0.2,0,0.2,0.2c0,0,0,0.1,0,0.1
			c0,0,0,0.1-0.1,0.1c-4.3-0.1-9,0.1-13.7,2.4c-1.2,0.6-2.2,1.1-3.1,1.6L105,34.3z M96.3,44.4c0.9-0.1,1.8-0.6,2.4-1.3
			c1-1.1,1.9-2.2,2.6-3.5c0.9-1.5,1.6-3,2.3-4.6C97.9,38.1,95,40.8,95,43c0,0.4,0.1,0.8,0.4,1.1C95.6,44.3,96,44.4,96.3,44.4
			L96.3,44.4z"/>
		<path class="st3" d="M124.5,28.6c0,0,38.5,2.8,42.7-1.6"/>
	</g>
</g>
</svg>
