<?xml version="1.0" encoding="utf-8"?>
<!-- Generator: Adobe Illustrator 24.1.0, SVG Export Plug-In . SVG Version: 6.00 Build 0)  -->
<svg version="1.1" id="Layer_1" xmlns="http://www.w3.org/2000/svg" xmlns:xlink="http://www.w3.org/1999/xlink" x="0px" y="0px"
	 viewBox="0 0 266.9 120.6" style="enable-background:new 0 0 266.9 120.6;" xml:space="preserve">
<style type="text/css">
	.st0{enable-background:new    ;}
	.st1{fill:#A95B26;}
	.st2{fill:none;stroke:#E7862B;stroke-width:0.5;stroke-miterlimit:10;}
	.st3{fill:#E7862B;}
</style>
<g id="Layer_2_1_">
	<g id="Layer_1-2">
		<g class="st0">
			<path class="st1" d="M5,96v-0.3c3.8,0,5.4-2.4,5.4-8.4V48.2c0-6-1.6-8.4-5.4-8.4v-0.3h20.1c11.9,0,17.6,4.9,17.6,15
				c0,10.3-6,15.6-17.6,15.6h-7.8v17.2c0,6,1.6,8.4,5.4,8.4V96H5z M17.4,40.8V69h7.1c8,0,12.1-4.9,12.1-14.5
				c0-9.4-3.8-13.8-12.1-13.8H17.4z"/>
		</g>
		<g class="st0">
			<path class="st1" d="M40.5,96v-0.3c2.1,0,4-1.8,5-4.7l18.1-51.4h2.4l17.8,50.7c1.2,3.5,3,5.4,5.2,5.4V96H70.9v-0.3
				c5.5,0,6.9-1.9,4.9-7.6l-3.8-11H51.5l-3.8,11c-2,5.6-0.7,7.6,4.9,7.6V96H40.5z M51.8,76h19.8l-9.8-28L51.8,76z"/>
		</g>
		<g class="st0">
			<path class="st1" d="M96.3,96v-0.3c3.8,0,5.4-2.4,5.4-8.4V48.2c0-6-1.6-8.4-5.4-8.4v-0.3h20.1c11.1,0,17.6,5.6,17.6,15
				c0,7.1-4,13-11.6,14.9c1.6,0.3,2.8,0.9,3.7,1.7c7.8,6.9,1.6,24.5,16.2,24.5h1.9V96h-2.9c-10.1,0-13.7-1.8-15.4-7.8L123,75.8
				c-0.9-4.1-2.9-5.6-7.2-5.6h-7.1v17.2c0,6,1.6,8.4,5.4,8.4V96H96.3z M108.6,40.8V69h7.1c8,0,12.1-6.3,12.1-14.5
				c0-8.7-4.5-13.8-12.1-13.8H108.6z"/>
		</g>
		<g class="st0">
			<path class="st1" d="M161.5,95.7c3.8,0,5.3-2.4,5.3-8.4V40.7h-7.2c-8.5,0-12.2,4-14.2,15.4h-0.9l3.2-16.5h45.3l3,16.5H195
				c-2.3-11.5-5.8-15.4-14.1-15.4h-7.2v46.6c0,6,1.5,8.4,5.3,8.4V96h-17.5V95.7z"/>
		</g>
		<g class="st0">
			<path class="st1" d="M223.3,95.7c3.8,0,5.3-2.4,5.3-8.4v-20l-15.4-19.1c-5.5-6.8-7.6-8.4-10.8-8.4v-0.3h19.4v0.3
				c-6.4,0-2.7,4.7,0.2,8.4l12.3,15.2l14-17.5c3.2-3.8,2.6-6.1-1.5-6.1v-0.3h13.8v0.3c-3.7,0-7.3,1.9-10.3,5.5l-14.9,18.5v23.4
				c0,6,1.6,8.4,5.4,8.4V96h-17.6V95.7z"/>
		</g>
		<path class="st2" d="M176,33.3c11.2,2.7,28.2,15.2,41.5,5.6"/>
		<path class="st3" d="M7.6,28.9C7.1,29,6,29.8,4.3,31.5C3,32.7,2,33.4,1.5,33.4c-0.5,0-0.9-0.2-1.1-0.6C0.1,32.5,0,32.1,0,31.6
			c0.1-1.5,0.6-3,1.6-4.2C2.3,26.5,2.9,26,3.4,26c0.4,0,0.8,0.2,0.9,0.6c0,0.1,0,0.3-0.1,0.4l-0.1,0.2c0,0-0.1,0.1-0.2,0.1
			c-0.7,0.8-1.3,1.6-1.9,2.4c-0.5,0.7-0.8,1.4-0.8,2.2c0,0.5,0.1,0.8,0.3,0.8s1.2-0.7,2.7-2.1C5.9,29,7,28.2,7.7,28.2
			c1,0.1,1.4,0.8,1.4,2.2c0,0.3,0,0.6,0,0.9c0,0.3-0.1,0.7-0.1,1c0,0.3,0,0.7,0.1,1c0,0.3,0.3,0.4,0.8,0.4c1.4-0.1,2.8-0.6,4-1.4
			c1.5-0.9,2.8-1.9,3.9-3.2c-0.3-0.6-0.4-1.2-0.4-1.9c0-0.4,0.1-0.8,0.4-1.1c0.2-0.3,0.5-0.4,0.9-0.4c0.3,0,0.5,0.1,0.7,0.3
			c0.2,0.2,0.3,0.5,0.3,0.9c0,0.7-0.3,1.4-0.8,1.9c1.2,1.7,3.2,2.6,5.3,2.5c3.3-0.2,6.6-0.9,9.7-1.9l6-1.9c0.2,0,0.4,0.1,0.4,0.3
			s-0.1,0.3-0.2,0.3c-0.6,0.2-1.2,0.4-1.8,0.6c-6.8,2.2-11.6,3.3-14.3,3.3c-3.1,0-5.1-0.8-6.1-2.3c-1.2,1.3-2.6,2.4-4.1,3.3
			c-1.2,0.8-2.7,1.3-4.1,1.4c-1.7,0-2.6-0.8-2.6-2.4c0-0.6,0.1-1.3,0.2-1.9C7.6,29.8,7.6,29.4,7.6,28.9z M18.5,28.1
			c0.2-0.3,0.4-0.7,0.4-1.1c0-0.3-0.1-0.5-0.3-0.5s-0.2,0.2-0.2,0.6C18.4,27.5,18.4,27.8,18.5,28.1z"/>
		<path class="st3" d="M65.2,43c-0.3,0-0.5-0.1-0.5-0.4c-0.4-2.8-0.6-5.6-0.6-8.4c0-1.7,0.1-3.3,0.2-5c-0.9,1.3-1.8,2.6-2.8,3.7
			c-0.6,0.8-1.5,1.2-2.4,1.3c-1.1,0-2-0.9-2-2c0-0.1,0-0.1,0-0.2c0-1.1,0.3-2.1,1.1-2.9c-0.6,0.3-2,0.9-4.2,1.8
			c-4.6,1.8-8.5,2.7-11.6,2.7c-2.5,0-3.8-1-3.8-3.1c0-1.1,0.3-2.2,0.9-3.1c0.6-0.9,1.7-1.4,2.8-1.4c0.3,0,0.6,0.1,0.9,0.2
			c0.3,0.2,0.4,0.5,0.4,0.8c0,0.5-0.2,1-0.6,1.3c-0.4,0.3-0.9,0.6-1.4,0.6c-0.5,0.1-1,0.2-1.5,0.2C40,29.7,40,30,40,30.4
			c0,0.6,0.2,1.3,0.6,1.8c0.4,0.5,1.1,0.8,1.8,0.7c2.9,0,6.7-0.9,11.3-2.7c2.4-1,4.4-1.9,6.1-2.6c0.7-0.5,1.5-0.8,2.3-0.8
			c0.7-0.1,1.5,0.4,1.6,1.1c0,0.1,0,0.3,0,0.4c0,0.2-0.1,0.4-0.3,0.4s-0.2-0.1-0.3-0.2C63,28.1,62.7,28,62.4,28
			c-1.1,0.1-2.1,0.6-2.7,1.6c-0.7,0.8-1.1,1.9-1.2,3c0,0.7,0.2,1.1,0.6,1.1c1.2-0.1,3-2.1,5.3-5.8c1.3-8.8,4.1-17.3,8.5-25
			c0.2-0.3,0.6-0.5,1.1-0.5c0.7,0.2,1.1,0.7,1.1,1.6c-0.1,2.2-0.6,4.3-1.4,6.4c-1,2.9-2.2,5.7-3.5,8.5c-1.4,2.9-2.8,5.5-4.2,8
			c-0.6,2.9-0.8,5.8-0.8,8.7c0,2.4,0.2,4.7,0.5,7.1C65.7,42.8,65.5,43,65.2,43z M40.4,28.5c0.6,0,1.2-0.1,1.7-0.4
			c0.5-0.1,0.8-0.6,0.8-1c0-0.2-0.2-0.3-0.6-0.3C41.5,26.8,40.8,27.4,40.4,28.5z M66.4,24.5c2.1-3.6,3.9-7.4,5.4-11.2
			c1.8-4.3,2.6-7.5,2.6-9.5c0-0.3,0-0.5,0-0.5C70.9,10,68.2,17.2,66.4,24.5L66.4,24.5z"/>
		<path class="st3" d="M85,35.1c-4,0-6.3-1.9-6.9-5.7c-1.1,1.3-2.4,2.5-3.7,3.6c-0.7,0.7-1.6,1.1-2.6,1.2c-1.2,0-1.8-0.7-2-2.2
			c0-0.8,0.3-1.7,0.7-2.4c0.5-0.8,1.1-1.5,1.8-2.1c0.7-0.6,1.6-0.9,2.5-0.9c0.5,0,0.9,0.1,1.2,0.5c0.3,0.3,0.4,0.7,0.4,1
			c0,0.2-0.1,0.4-0.3,0.4c-0.2,0-0.3-0.1-0.3-0.2c-0.1-0.3-0.4-0.5-0.7-0.4C74,28,73,28.6,72.4,29.5c-0.7,0.8-1.1,1.9-1.2,3
			c0,0.7,0.2,1.1,0.6,1.1c0.8,0,2.4-1.2,4.7-3.6c0.5-0.5,0.9-1,1.4-1.5c-0.2-1.1-0.2-2.2-0.2-3.3c0-2.2,0.3-4.5,1-6.6
			c0.7-2.3,1.6-4.6,2.7-6.8c1-2,2.2-3.9,3.6-5.8c1.9-2.6,3.7-4,5.4-4.1c0.6,0,1.2,0.2,1.7,0.7c0.5,0.6,0.7,1.3,0.6,2.1
			c0,1.7-0.9,4.2-2.7,7.4c-3,5.7-6.6,11-10.7,15.9c0.3,4,2.3,6.1,5.8,6.3c2.7-0.1,5.4-1.1,7.5-2.7c2-1.2,3.9-2.6,5.6-4.1
			c0,0,0.1-0.1,0.2-0.1c0.3,0,0.4,0.1,0.4,0.3c0,0.1,0,0.2-0.1,0.3c-1.8,1.5-3.7,2.9-5.7,4.2C90.6,34,87.9,35,85,35.1z M79.1,27.1
			c3.3-4,6.3-8.2,8.9-12.7c2.6-4.4,3.8-7.7,3.8-9.6c0-1.4-0.5-2.1-1.6-2.1s-2.1,0.8-3.4,2.4C85.4,7,84.2,9,83.2,11.2
			c-1.2,2.4-2.2,5-3,7.6c-0.7,2.2-1.1,4.5-1.2,6.8L79.1,27.1z"/>
		<path class="st3" d="M101.3,34c-2.9,0-4.3-1.1-4.4-3.4c0-1.4,0.5-2.8,1.4-3.9c0.2-0.3,0.4-0.4,0.8-0.4c0.2,0,0.5,0,0.7,0.1
			c0.2,0.1,0.3,0.2,0.3,0.4v0.2c-0.7,1.1-1.1,2.3-1.1,3.6c0,0.6,0.2,1.2,0.6,1.7c0.5,0.5,1.1,0.8,1.8,0.9c1.7,0,3.4-0.3,5-0.9
			c1.9-0.6,3.8-1.3,5.7-2s3.4-1.4,4.7-2l2-0.9c0.3,0,0.4,0.1,0.4,0.3c0,0.1,0,0.1,0,0.2c0,0.1-0.1,0.1-0.1,0.1s-0.7,0.4-2,0.9
			s-2.8,1.3-4.6,2C107.5,33,103.8,34,101.3,34z M100,25c-0.5,0-0.8-0.4-0.8-1.2c0-1.1,0.4-1.7,1.1-1.9c0.3,0,0.7,0.2,0.9,0.4
			c0.2,0.2,0.4,0.6,0.4,0.9c0,0.5-0.2,0.9-0.5,1.2C100.8,24.8,100.4,25,100,25z"/>
		<path class="st3" d="M116.5,34.2c-0.4,0-0.6-0.2-0.6-0.7c0.1-1,0.3-2,0.7-2.9c0.4-1.2,0.8-2.4,1.4-3.6c0.2-0.4,0.6-0.6,1-0.7
			c0.6,0,1,0.2,1,0.7l0,0c0,0.1-0.1,0.3-0.1,0.4c-0.9,1.5-1.6,3.1-2.3,4.8c1.1-1.2,2.3-2.2,3.6-3.2c0.9-0.9,2.1-1.4,3.4-1.6
			c0.6,0,1.3,0.1,1.8,0.4c0.4,0.3,0.8,0.6,1,1c0.2,0.4,0.5,0.9,0.7,1.3c0.2,0.5,0.4,1,0.7,1.5c0.4,0.4,0.9,0.6,1.5,0.6
			c2.1,0,5.5-0.8,10.2-2.4l6.3-2.4l0,0l0.1-0.1c0.1,0,0.2,0.1,0.3,0.2c0.1,0.1,0.1,0.2,0.1,0.3V28c0,0,0,0.1-0.1,0.2l-1.9,0.8
			c-6.9,2.8-11.9,4.1-15,4.1c-1.8,0-3-0.4-3.7-1.2c-0.5-0.7-0.9-1.5-1.1-2.4c-0.1-0.3-0.2-0.6-0.3-0.9c-0.1-0.2-0.3-0.4-0.6-0.4
			c-0.8,0-1.9,0.6-3.4,1.8c-1.5,1.2-2.8,2.5-4.1,4v0.1c-0.1,0-0.1,0.1-0.2,0.1C116.7,34.2,116.6,34.3,116.5,34.2z"/>
		<path class="st3" d="M150.6,27.9c-0.3,0.5-0.5,1-0.7,1.4c-0.3,0.6-0.6,1.2-0.9,1.6c-0.3,0.6-0.7,1.1-1.1,1.6
			c-0.3,0.8-1.1,1.4-2,1.4c-1.1,0-1.9-0.9-1.8-2c0-0.1,0-0.1,0-0.2c0.1-1.4,0.7-2.8,1.7-3.8c0.9-1.2,2.3-1.9,3.7-1.9
			c0.4,0,0.7,0,1,0.2l0.1-0.1c0.3-0.8,0.7-1.4,1.4-1.9l0.1-0.1c0,0,0.1,0,0.1,0c0.4-0.1,0.9,0.2,1,0.6c0.2,0.6,0.2,1.2,0.2,1.8
			c0,4-0.4,7.9-1.2,11.8c6.4-2.5,16-7.7,23.8-5.5c0.4,0.1,0.5,0.1,0.5,0.4c0,0.1-0.1,0.2-0.2,0.2c-8.2-2-17.7,3.2-24.3,5.7
			c-1.1,5.9-3.4,11.5-6.8,16.4c-3.2,4.7-7.4,7.1-12.5,7.3c-1.6,0-3.2-0.6-4.3-1.9c-1.1-1.3-1.7-2.9-1.7-4.6c-0.2-3,1.1-6,3.4-7.9
			c2.9-2.3,6.2-4.1,9.6-5.3l4.6-1.8l2.6-1c0.9-0.4,2.2-0.9,3.9-1.5c0.9-4,1.4-8.1,1.4-12.2c0-0.6,0-1.1-0.1-1.7
			c-0.5,0.5-1,1.1-1.3,1.8c0.1,0.2,0.2,0.4,0.2,0.7c0,0.2-0.1,0.3-0.3,0.4c0,0-0.1,0-0.1,0C150.7,28.1,150.6,28,150.6,27.9z
			 M132.8,62.3c2.2,0,4.4-0.6,6.2-1.9c2-1.3,3.7-3,5.1-5c1.6-2.3,2.9-4.7,3.9-7.3c1.1-2.7,2-5.5,2.6-8.3c-0.6,0.2-1.3,0.5-2,0.8
			c-4.1,1.5-7.7,3-10.7,4.3c-2.6,1.1-5.1,2.5-7.3,4.3c-2.1,1.7-3.2,4.1-3.2,7.3c0,1.5,0.5,2.9,1.4,4.1
			C129.9,61.8,131.3,62.4,132.8,62.3z M146,33.3c0.5,0,1.1-0.5,1.6-1.5c0.6-1,1.4-2.4,2.3-4.3l0.1-0.2c-0.1,0-0.2,0-0.3,0
			c-1.1,0.1-2.1,0.7-2.8,1.5c-0.9,0.9-1.4,2.1-1.4,3.4C145.6,33,145.7,33.3,146,33.3L146,33.3z"/>
	</g>
</g>
</svg>
