<svg xmlns="http://www.w3.org/2000/svg" viewBox="0 0 266.88 120.63"><defs><style>.cls-1{font-size:112.95px;fill:#a95b26;font-family:Rusillaserif-Regular, Rusilla serif;letter-spacing:-0.04em;}.cls-2{letter-spacing:0.04em;}.cls-3{letter-spacing:0.03em;}.cls-4{letter-spacing:0.05em;}.cls-5{fill:none;stroke:#e7862b;stroke-miterlimit:10;stroke-width:0.5px;}.cls-6{fill:#e7862b;}</style></defs><g id="Layer_2" data-name="Layer 2"><g id="Layer_1-2" data-name="Layer 1"><text class="cls-1" transform="translate(2.79 96.01)">p<tspan class="cls-2" x="37.16" y="0">a</tspan><tspan x="91.27" y="0">r</tspan><tspan class="cls-3" x="139.16" y="0">t</tspan><tspan class="cls-4" x="199.03" y="0">y</tspan></text><path class="cls-5" d="M176,33.28C187.17,36,204.2,48.5,217.46,38.86"/><path class="cls-6" d="M7.63,28.93c-.58.07-1.67.92-3.3,2.54C3,32.75,2.05,33.4,1.55,33.4A1.33,1.33,0,0,1,.4,32.85,2,2,0,0,1,0,31.64a7.11,7.11,0,0,1,1.58-4.22C2.27,26.48,2.86,26,3.37,26a.84.84,0,0,1,.89.58.57.57,0,0,1-.07.36l-.12.16a.28.28,0,0,1-.15.1,26.53,26.53,0,0,0-1.86,2.42,4.13,4.13,0,0,0-.82,2.25c0,.53.1.79.31.79S2.73,32,4.26,30.58C5.86,29,7,28.24,7.66,28.24c1,.07,1.44.79,1.44,2.17a7.54,7.54,0,0,1,0,.91c0,.33-.05.66-.05,1a8.2,8.2,0,0,0,.07,1c0,.29.28.44.76.44a8,8,0,0,0,4-1.44,18,18,0,0,0,3.94-3.16,4.39,4.39,0,0,1-.38-1.89,1.56,1.56,0,0,1,.38-1.07,1.18,1.18,0,0,1,.89-.41,1.06,1.06,0,0,1,.71.31,1.15,1.15,0,0,1,.32.86,3.08,3.08,0,0,1-.75,1.89,6.25,6.25,0,0,0,5.29,2.51,38.94,38.94,0,0,0,9.69-1.92L40,27.52c.25,0,.38.1.38.31s-.06.34-.18.34a17.11,17.11,0,0,1-1.78.62q-10.22,3.3-14.26,3.3-4.64,0-6.08-2.3A17.28,17.28,0,0,1,14,33.1a8.43,8.43,0,0,1-4.15,1.36c-1.7,0-2.55-.85-2.55-2.4a7.79,7.79,0,0,1,.21-1.86A6.25,6.25,0,0,0,7.63,28.93Zm10.89-.83A2,2,0,0,0,18.93,27c0-.3-.1-.45-.31-.45s-.19.21-.24.62A2.63,2.63,0,0,0,18.52,28.1Z"/><path class="cls-6" d="M65.25,43c-.35,0-.52-.13-.52-.38a62.4,62.4,0,0,1-.58-8.35,44.48,44.48,0,0,1,.24-5A34.89,34.89,0,0,1,61.54,33a3.45,3.45,0,0,1-2.41,1.34,2,2,0,0,1-2-2.17,4.21,4.21,0,0,1,1.07-2.95c-.62.3-2,.88-4.23,1.75q-6.93,2.71-11.58,2.72c-2.47,0-3.75-1-3.84-3.13a5.35,5.35,0,0,1,.92-3.06,3.15,3.15,0,0,1,2.79-1.37,1.69,1.69,0,0,1,.92.25.9.9,0,0,1,.42.81,1.61,1.61,0,0,1-.59,1.31,3.14,3.14,0,0,1-1.39.65,6.76,6.76,0,0,1-1.46.17A3.34,3.34,0,0,0,40,30.41a2.67,2.67,0,0,0,.63,1.77,2.24,2.24,0,0,0,1.77.74q4.31,0,11.34-2.68c2.41-1,4.43-1.85,6.08-2.65a3.87,3.87,0,0,1,2.34-.83,1.37,1.37,0,0,1,1.58,1.52c0,.25-.11.37-.34.37s-.22-.08-.31-.24A.66.66,0,0,0,62.4,28a3.31,3.31,0,0,0-2.65,1.56,5,5,0,0,0-1.17,3c0,.71.21,1.07.62,1.07,1.19-.12,3-2.06,5.33-5.84a71,71,0,0,1,8.52-25,1.16,1.16,0,0,1,1.06-.48c.71.16,1.07.7,1.07,1.61a21.07,21.07,0,0,1-1.41,6.38,82.37,82.37,0,0,1-3.52,8.5Q68.14,23.13,66,26.76a45.2,45.2,0,0,0-.82,8.73,52.54,52.54,0,0,0,.48,7.08A.45.45,0,0,1,65.25,43ZM40.37,28.55a4.29,4.29,0,0,0,1.7-.36,1.15,1.15,0,0,0,.84-1.05c0-.23-.19-.34-.58-.34C41.48,26.8,40.83,27.38,40.37,28.55Zm26.05-4a86.6,86.6,0,0,0,5.41-11.24q2.63-6.49,2.63-9.52,0-.44,0-.48A89.14,89.14,0,0,0,66.42,24.57Z"/><path class="cls-6" d="M85,35.08q-6,0-6.94-5.7A36.87,36.87,0,0,1,74.4,33a4.33,4.33,0,0,1-2.55,1.25c-1.15,0-1.81-.72-2-2.17a4.9,4.9,0,0,1,.69-2.37,6.86,6.86,0,0,1,1.84-2.11,4.07,4.07,0,0,1,2.49-.88,1.52,1.52,0,0,1,1.22.47,1.59,1.59,0,0,1,.39,1.05c0,.25-.11.37-.34.37a.39.39,0,0,1-.34-.24.68.68,0,0,0-.73-.44,3.31,3.31,0,0,0-2.64,1.56,5,5,0,0,0-1.17,3c0,.71.18,1.07.55,1.07q1.27,0,4.67-3.57a17.86,17.86,0,0,0,1.38-1.52,21,21,0,0,1-.24-3.3,23,23,0,0,1,1-6.59,39.53,39.53,0,0,1,2.71-6.77A40.44,40.44,0,0,1,84.9,6.05c1.93-2.59,3.71-4,5.36-4.09a2.2,2.2,0,0,1,1.67.68,3,3,0,0,1,.63,2.1q0,2.55-2.68,7.39A93.68,93.68,0,0,1,79.16,28.07q.48,6,5.81,6.32a13.26,13.26,0,0,0,7.52-2.71,36.89,36.89,0,0,0,5.61-4.09.27.27,0,0,1,.17-.07c.29,0,.44.12.44.34a.38.38,0,0,1-.13.28,53.55,53.55,0,0,1-5.67,4.16A14.19,14.19,0,0,1,85,35.08Zm-5.91-8a99,99,0,0,0,8.87-12.71Q91.8,7.7,91.81,4.74c0-1.37-.52-2.06-1.55-2.06s-2.11.81-3.38,2.42a34.52,34.52,0,0,0-3.71,6.1,49.74,49.74,0,0,0-3,7.58A23.93,23.93,0,0,0,79,25.6Z"/><path class="cls-6" d="M101.26,34c-2.87,0-4.32-1.12-4.37-3.37a6.25,6.25,0,0,1,1.38-3.91.76.76,0,0,1,.75-.38,1.4,1.4,0,0,1,.66.15.49.49,0,0,1,.27.43l0,.17a6.5,6.5,0,0,0-1.14,3.65,2.66,2.66,0,0,0,.6,1.71,2.48,2.48,0,0,0,1.84.86,17.81,17.81,0,0,0,5-.87c1.94-.59,3.83-1.26,5.69-2s3.41-1.43,4.67-2l2-.89c.27,0,.41.11.41.34a.54.54,0,0,1,0,.21c0,.06-.07.1-.12.1s-.73.36-2,.94-2.79,1.26-4.62,2Q105.07,34,101.26,34ZM100,25.05c-.53,0-.79-.42-.79-1.24,0-1.1.37-1.73,1.1-1.89a1.14,1.14,0,0,1,.89.43,1.38,1.38,0,0,1,.38.91,1.79,1.79,0,0,1-.52,1.2A1.43,1.43,0,0,1,100,25.05Z"/><path class="cls-6" d="M116.51,34.25c-.39,0-.58-.22-.58-.68a11.12,11.12,0,0,1,.67-2.89A27.77,27.77,0,0,1,118,27.07a1.32,1.32,0,0,1,1-.68c.64,0,1,.23,1,.68v0a.8.8,0,0,1-.14.41,33.67,33.67,0,0,0-2.26,4.81,31.62,31.62,0,0,1,3.6-3.19,6.25,6.25,0,0,1,3.37-1.62,3.49,3.49,0,0,1,1.81.41,3,3,0,0,1,1,1.05c.24.43.46.85.67,1.29a4.87,4.87,0,0,0,.73,1.46,1.74,1.74,0,0,0,1.47.6c2.1,0,5.52-.79,10.23-2.37l6.26-2.44h0l.07-.07a.87.87,0,0,1,.31.19.38.38,0,0,1,.07.26V28c0,.05,0,.1-.1.17l-1.89.76q-10.35,4.13-15,4.12c-1.84,0-3-.39-3.65-1.17a6.6,6.6,0,0,1-1.1-2.37,4.51,4.51,0,0,0-.34-.92c-.07-.23-.27-.35-.62-.35-.8,0-1.92.6-3.37,1.81A46.3,46.3,0,0,0,117,34l0,.07a.91.91,0,0,0-.17.12A.46.46,0,0,1,116.51,34.25Z"/><path class="cls-6" d="M150.6,27.9c-.26.48-.48,1-.69,1.41-.32.64-.61,1.19-.86,1.65A17.52,17.52,0,0,1,148,32.61,2.32,2.32,0,0,1,146,34.05a1.92,1.92,0,0,1-1.82-2.17,5.82,5.82,0,0,1,1.68-3.83,4.9,4.9,0,0,1,3.71-1.9,1.46,1.46,0,0,1,1,.24l.07-.11A4,4,0,0,1,152,24.39l.12-.06a.34.34,0,0,1,.15,0,.93.93,0,0,1,1,.65,5.56,5.56,0,0,1,.23,1.76,58.68,58.68,0,0,1-1.21,11.78c6.37-2.45,16-7.7,23.81-5.46.35.09.48.12.48.38a.3.3,0,0,1-.17.24c-8.23-2-17.69,3.17-24.29,5.67a43.3,43.3,0,0,1-6.84,16.42q-4.87,7-12.5,7.32a5.57,5.57,0,0,1-4.33-1.87,6.63,6.63,0,0,1-1.68-4.59,9.63,9.63,0,0,1,3.43-7.9,34.91,34.91,0,0,1,9.62-5.33l4.61-1.79,2.59-1c.93-.36,2.22-.88,3.87-1.54a55.77,55.77,0,0,0,1.44-12.17,8.24,8.24,0,0,0-.07-1.71A5.86,5.86,0,0,0,151,27a1.06,1.06,0,0,1,.17.69.33.33,0,0,1-.37.38A.24.24,0,0,1,150.6,27.9ZM132.8,62.33A11.11,11.11,0,0,0,139,60.47a19.44,19.44,0,0,0,5.12-5,35.24,35.24,0,0,0,3.95-7.28,53,53,0,0,0,2.63-8.28c-.59.22-1.27.49-2,.79Q142.49,43,138,45a29.94,29.94,0,0,0-7.28,4.28q-3.19,2.5-3.2,7.35a6.05,6.05,0,0,0,1.43,4.09A4.88,4.88,0,0,0,132.8,62.33Zm13.23-29c.5,0,1.05-.49,1.65-1.46s1.36-2.4,2.3-4.28l.1-.24a.54.54,0,0,0-.27,0A3.91,3.91,0,0,0,147,28.9a5,5,0,0,0-1.41,3.36C145.58,33,145.73,33.33,146,33.33Z"/></g></g></svg>